<svg xmlns="http://www.w3.org/2000/svg" width="412" height="80" fill="none" viewBox="0 0 412 80"><path fill="#fff" d="M230.46 29.494q4.452 0 7.636 1.73 3.184 1.697 4.999 4.412 1.848 2.714 2.225 5.734a.242.242 0 0 1-.241.272h-5.263a.36.36 0 0 1-.351-.272q-.65-2.647-2.876-4.648-2.192-2.003-6.129-2.003-3.081 0-5.41 1.63-2.328 1.593-3.629 4.546-1.301 2.918-1.301 6.923v.034q0 4.105 1.301 7.024 1.335 2.918 3.664 4.479 2.362 1.56 5.444 1.56 3.663 0 5.923-1.832 2.294-1.866 3.048-4.818a.36.36 0 0 1 .35-.272h5.331a.21.21 0 0 1 .208.238 13.1 13.1 0 0 1-2.5 6.074q-1.986 2.68-5.17 4.276-3.15 1.56-7.19 1.56-5.034 0-8.766-2.24-3.698-2.272-5.718-6.379-2.02-4.14-2.02-9.738v-.034q0-5.565 2.054-9.671 2.055-4.106 5.753-6.346t8.628-2.24m35.13.001q4.452 0 7.636 1.73 3.184 1.697 4.999 4.412 1.848 2.714 2.225 5.734a.242.242 0 0 1-.241.272h-5.263a.36.36 0 0 1-.351-.272q-.65-2.647-2.876-4.648-2.192-2.003-6.129-2.003-3.08 0-5.41 1.63-2.328 1.593-3.629 4.546-1.3 2.918-1.301 6.923v.034q0 4.105 1.301 7.024 1.335 2.918 3.664 4.479 2.362 1.56 5.444 1.56 3.663 0 5.923-1.832 2.294-1.866 3.048-4.818a.36.36 0 0 1 .35-.272h5.331a.21.21 0 0 1 .208.238 13.1 13.1 0 0 1-2.5 6.074q-1.986 2.68-5.17 4.276-3.15 1.56-7.19 1.56-5.034 0-8.766-2.24-3.697-2.272-5.718-6.379-2.02-4.14-2.02-9.738v-.034q0-5.565 2.055-9.671 2.054-4.106 5.752-6.346t8.628-2.24"/><path fill="#fff" fill-rule="evenodd" d="M300.754 29.494q4.932 0 8.629 2.24 3.732 2.206 5.786 6.31 2.09 4.073 2.089 9.706v.068q0 5.633-2.089 9.738-2.054 4.107-5.752 6.346-3.697 2.24-8.628 2.24-4.93 0-8.663-2.24-3.698-2.24-5.786-6.346-2.055-4.14-2.055-9.738v-.068q0-5.632 2.055-9.705 2.088-4.106 5.786-6.312 3.732-2.24 8.628-2.24m0 5.225q-3.081 0-5.444 1.561-2.328 1.527-3.629 4.446-1.3 2.883-1.301 7.024v.068q0 4.14 1.301 7.092 1.3 2.918 3.629 4.479 2.363 1.527 5.513 1.527t5.444-1.527q2.328-1.56 3.595-4.48 1.301-2.952 1.301-7.091v-.068q0-4.14-1.301-7.058-1.266-2.919-3.629-4.446-2.328-1.527-5.479-1.527" clip-rule="evenodd"/><path fill="#fff" d="M329.071 52.025q0 4.31 2.02 6.617 2.054 2.274 6.163 2.274 2.123 0 3.801-.713a8.6 8.6 0 0 0 2.944-2.002q1.233-1.323 1.884-3.156.65-1.866.65-4.106V31.91c0-.959.785-1.737 1.753-1.737h2.452c.968 0 1.753.778 1.753 1.738v31.815c0 .96-.785 1.738-1.753 1.738h-2.452a1.745 1.745 0 0 1-1.753-1.738v-3.198a.087.087 0 0 0-.087-.086.09.09 0 0 0-.075.042 11.3 11.3 0 0 1-2.474 2.876q-1.507 1.29-3.63 2.036-2.122.747-4.828.746-3.903 0-6.676-1.594-2.74-1.596-4.212-4.514-1.438-2.951-1.438-6.956V31.91c0-.96.785-1.738 1.753-1.738h2.452c.968 0 1.753.778 1.753 1.738zm76.149-22.721c0 .48.392.868.877.868h4.149c.969 0 1.754.778 1.754 1.738v1.411c0 .96-.785 1.738-1.754 1.738h-4.149a.87.87 0 0 0-.877.868v20.51q0 2.816 1.233 3.834 1.232.984 3.629.984.548 0 1.027-.034a.788.788 0 0 1 .891.787v2.464a1.56 1.56 0 0 1-1.439 1.568q-.855.1-1.746.101-4.896 0-7.327-2.307t-2.431-7.364V35.928a.873.873 0 0 0-.877-.868h-2.575a1.745 1.745 0 0 1-1.753-1.738V31.91c0-.96.785-1.738 1.753-1.738h2.575a.873.873 0 0 0 .877-.868v-6.93c0-.959.785-1.737 1.753-1.737h2.657c.968 0 1.753.778 1.753 1.738z"/><path fill="#fff" fill-rule="evenodd" d="M210.819 63.12c.425 1.135-.422 2.343-1.643 2.343h-2.711a1.75 1.75 0 0 1-1.653-1.158l-4.382-12.278a.88.88 0 0 0-.827-.579h-18.637a.88.88 0 0 0-.826.579l-4.392 12.279a1.75 1.75 0 0 1-1.652 1.157h-2.71c-1.222 0-2.07-1.208-1.643-2.343l17.082-45.491c.255-.68.91-1.132 1.643-1.132h3.657c.733 0 1.389.452 1.644 1.133zm-28.2-18.022a.87.87 0 0 0 .826 1.159h13.686a.87.87 0 0 0 .826-1.159l-7.569-21.207a.1.1 0 0 0-.091-.064.1.1 0 0 0-.091.064z" clip-rule="evenodd"/><path fill="#fff" d="M377.315 29.494q5.854 0 9.073 3.529 3.253 3.495 3.253 9.535v21.167c0 .96-.785 1.738-1.753 1.738h-2.452a1.745 1.745 0 0 1-1.753-1.738V43.61q0-4.31-2.054-6.583-2.02-2.307-6.129-2.308-2.808 0-4.896 1.256-2.09 1.221-3.253 3.461-1.13 2.24-1.13 5.26v19.03c0 .959-.785 1.737-1.753 1.737h-2.452a1.745 1.745 0 0 1-1.753-1.738V31.91c0-.96.785-1.738 1.753-1.738h2.452c.968 0 1.753.778 1.753 1.738v3.198c0 .048.039.087.087.087a.09.09 0 0 0 .075-.044q1.437-2.448 4.152-4.029 2.739-1.628 6.78-1.628"/><path fill="#fff" fill-rule="evenodd" d="M126.435 63.039c.334.925-.367 1.896-1.369 1.896h-7.896a1.45 1.45 0 0 1-1.384-.994l-3.295-10.232a.72.72 0 0 0-.692-.497h-16.68a.72.72 0 0 0-.692.496l-3.295 10.233a1.45 1.45 0 0 1-1.385.994h-7.895c-1.002 0-1.703-.972-1.368-1.897L96.967 17.55a1.45 1.45 0 0 1 1.368-.946h10.284c.615 0 1.163.38 1.369.947zm-29.113-18.32a.713.713 0 0 0 .692.924h10.89c.49 0 .839-.466.692-.924l-6.001-18.64a.143.143 0 0 0-.271 0z" clip-rule="evenodd"/><path fill="#fff" d="M159.5 23.523c0 .785-.65 1.421-1.451 1.421h-12.347a.72.72 0 0 0-.726.711v37.858c0 .785-.65 1.422-1.451 1.422h-7.59c-.802 0-1.452-.637-1.452-1.422V25.655a.72.72 0 0 0-.725-.71h-12.311c-.802 0-1.452-.637-1.452-1.422v-5.497c0-.785.65-1.422 1.452-1.422h36.602c.801 0 1.451.637 1.451 1.422z"/><path fill="#fff" fill-rule="evenodd" d="M40.461 0q8.64 0 15.857 2.974 7.216 2.872 12.501 8.103 5.388 5.129 8.234 12.102Q80 30.154 80 38.565q0 6.768-1.83 11.589-1.83 4.82-5.488 7.384Q69.022 60 63.534 60q-3.964 0-7.318-1.435-3.253-1.54-5.082-4a10 10 0 0 1-.542-.808q-1.726 2.459-4.439 4.09-4.268 2.46-9.656 2.461-5.285 0-9.453-2.462-4.167-2.46-6.504-6.871-2.338-4.41-2.338-10.155 0-5.948 2.337-10.358t6.505-6.873q4.169-2.46 9.453-2.46 4.472 0 7.827 1.948 2.035 1.12 3.659 3.074v-3.325h11.892v20.558q0 3.385 1.016 4.924 1.017 1.435 3.66 1.435 3.049 0 4.37-2.666 1.423-2.667 1.423-8.41 0-6.36-2.236-11.59-2.135-5.231-6.099-9.026-3.963-3.897-9.452-5.949-5.388-2.05-11.994-2.05-6.607 0-12.096 2.255-5.489 2.154-9.452 6.257t-6.2 9.744q-2.135 5.64-2.135 12.512 0 6.257 2.237 11.59 2.337 5.334 6.403 9.334 4.066 3.898 9.453 6.154 5.49 2.256 11.79 2.256 8.843 0 16.77-5.026l4.575 8.616q-4.676 3.077-10.266 4.615A38.8 38.8 0 0 1 40.462 80q-8.335 0-15.552-2.974t-12.603-8.308-8.436-12.41Q.82 49.23.82 40.923q0-8.923 2.947-16.41 2.949-7.488 8.234-12.923 5.387-5.436 12.604-8.513Q31.924 0 40.46 0m-1.118 31.692q-2.44 0-4.37 1.129-1.83 1.128-2.948 3.179-1.016 2.05-1.016 4.82 0 2.667 1.016 4.719 1.119 1.948 2.948 3.076 1.931 1.128 4.37 1.128 2.541 0 4.371-1.128a7.75 7.75 0 0 0 2.846-3.076q1.017-2.051 1.017-4.719 0-2.77-1.118-4.82-1.017-2.051-2.847-3.18-1.728-1.127-4.269-1.128" clip-rule="evenodd"/></svg>