<svg width="466" height="90" viewBox="0 0 466 90" fill="none" xmlns="http://www.w3.org/2000/svg">
<path d="M258.616 32.8125C262.006 32.8125 264.914 33.4766 267.339 34.8047C269.764 36.1068 271.667 37.7995 273.049 39.8828C274.457 41.9661 275.305 44.1667 275.592 46.4844C275.613 46.6503 275.483 46.7969 275.316 46.7969H269.304C269.114 46.7969 268.949 46.668 268.903 46.4844C268.408 44.4531 267.313 42.6693 265.618 41.1328C263.949 39.5964 261.615 38.8281 258.616 38.8281C256.269 38.8281 254.209 39.4531 252.436 40.7031C250.663 41.9271 249.281 43.6719 248.29 45.9375C247.299 48.1771 246.804 50.8333 246.804 53.9062V53.9453C246.804 57.0964 247.299 59.7917 248.29 62.0312C249.307 64.2708 250.702 65.9896 252.475 67.1875C254.274 68.3854 256.348 68.9844 258.694 68.9844C261.485 68.9844 263.74 68.2812 265.461 66.875C267.208 65.4427 268.369 63.5938 268.942 61.3281C268.988 61.1445 269.154 61.0156 269.343 61.0156H275.433C275.579 61.0156 275.691 61.1447 275.67 61.2891C275.305 63.8672 274.353 66.1979 272.815 68.2812C271.302 70.3385 269.333 71.9792 266.908 73.2031C264.509 74.401 261.771 75 258.694 75C254.861 75 251.523 74.1406 248.681 72.4219C245.865 70.6771 243.688 68.2292 242.149 65.0781C240.611 61.901 239.841 58.1641 239.841 53.8672V53.8281C239.841 49.5573 240.624 45.8464 242.188 42.6953C243.753 39.5443 245.943 37.1094 248.759 35.3906C251.576 33.6719 254.861 32.8125 258.616 32.8125Z" fill="white"/>
<path d="M298.747 32.8125C302.137 32.8125 305.045 33.4766 307.47 34.8047C309.895 36.1068 311.799 37.7995 313.181 39.8828C314.589 41.9661 315.436 44.1667 315.723 46.4844C315.744 46.6503 315.614 46.7969 315.447 46.7969H309.435C309.246 46.7969 309.08 46.668 309.034 46.4844C308.539 44.4531 307.444 42.6693 305.749 41.1328C304.08 39.5964 301.746 38.8281 298.747 38.8281C296.401 38.8281 294.341 39.4531 292.567 40.7031C290.794 41.9271 289.412 43.6719 288.421 45.9375C287.43 48.1771 286.935 50.8333 286.935 53.9062V53.9453C286.935 57.0964 287.43 59.7917 288.421 62.0312C289.438 64.2708 290.833 65.9896 292.606 67.1875C294.406 68.3854 296.479 68.9844 298.826 68.9844C301.616 68.9844 303.871 68.2812 305.592 66.875C307.34 65.4427 308.5 63.5938 309.074 61.3281C309.12 61.1445 309.285 61.0156 309.474 61.0156H315.564C315.71 61.0156 315.822 61.1447 315.801 61.2891C315.436 63.8672 314.484 66.1979 312.946 68.2812C311.433 70.3385 309.465 71.9792 307.04 73.2031C304.641 74.401 301.903 75 298.826 75C294.992 75 291.655 74.1406 288.812 72.4219C285.996 70.6771 283.819 68.2292 282.28 65.0781C280.742 61.901 279.973 58.1641 279.973 53.8672V53.8281C279.973 49.5573 280.755 45.8464 282.319 42.6953C283.884 39.5443 286.074 37.1094 288.891 35.3906C291.707 33.6719 294.992 32.8125 298.747 32.8125Z" fill="white"/>
<path fill-rule="evenodd" clip-rule="evenodd" d="M338.918 32.8125C342.673 32.8125 345.958 33.6719 348.775 35.3906C351.617 37.0833 353.82 39.5052 355.385 42.6562C356.976 45.7812 357.771 49.5052 357.771 53.8281V53.9062C357.771 58.2292 356.976 61.9661 355.385 65.1172C353.82 68.2682 351.63 70.7031 348.814 72.4219C345.997 74.1406 342.712 75 338.957 75C335.202 75 331.903 74.1406 329.061 72.4219C326.245 70.7031 324.041 68.2682 322.451 65.1172C320.886 61.9401 320.104 58.2031 320.104 53.9062V53.8281C320.104 49.5052 320.886 45.7812 322.451 42.6562C324.041 39.5052 326.245 37.0833 329.061 35.3906C331.903 33.6719 335.189 32.8125 338.918 32.8125ZM338.918 38.8281C336.571 38.8281 334.498 39.4271 332.699 40.625C330.925 41.7969 329.543 43.5026 328.552 45.7422C327.562 47.9557 327.066 50.651 327.066 53.8281V53.9062C327.066 57.0833 327.562 59.8047 328.552 62.0703C329.543 64.3099 330.925 66.0286 332.699 67.2266C334.498 68.3984 336.597 68.9844 338.996 68.9844C341.395 68.9844 343.468 68.3984 345.215 67.2266C346.988 66.0286 348.357 64.3099 349.322 62.0703C350.313 59.8047 350.809 57.0833 350.809 53.9062V53.8281C350.809 50.651 350.313 47.9427 349.322 45.7031C348.357 43.4635 346.975 41.7578 345.176 40.5859C343.403 39.4141 341.317 38.8281 338.918 38.8281Z" fill="white"/>
<path d="M371.265 58.75C371.265 62.0573 372.035 64.5964 373.573 66.3672C375.138 68.112 377.484 68.9844 380.614 68.9844C382.23 68.9844 383.678 68.7109 384.955 68.1641C386.259 67.6172 387.38 66.849 388.319 65.8594C389.258 64.8438 389.975 63.6328 390.47 62.2266C390.966 60.7943 391.214 59.2188 391.214 57.5V35.5938C391.214 34.4892 392.11 33.5938 393.216 33.5938H396.017C397.123 33.5938 398.019 34.4892 398.019 35.5938V72.2188C398.019 73.3233 397.123 74.2188 396.017 74.2188H393.216C392.11 74.2188 391.214 73.3233 391.214 72.2188V68.5367C391.214 68.4819 391.169 68.4375 391.114 68.4375C391.079 68.4375 391.046 68.4563 391.028 68.4867C390.302 69.7169 389.36 70.8203 388.202 71.7969C387.054 72.7865 385.672 73.5677 384.056 74.1406C382.439 74.7135 380.601 75 378.541 75C375.568 75 373.025 74.388 370.913 73.1641C368.827 71.9401 367.223 70.2083 366.102 67.9688C365.007 65.7031 364.459 63.0339 364.459 59.9609V35.5938C364.459 34.4892 365.356 33.5938 366.462 33.5938H369.263C370.369 33.5938 371.265 34.4892 371.265 35.5938V58.75Z" fill="white"/>
<path d="M458.255 32.5938C458.255 33.146 458.704 33.5938 459.257 33.5938H463.997C465.103 33.5938 466 34.4892 466 35.5938V37.2188C466 38.3233 465.103 39.2188 463.997 39.2188H459.257C458.704 39.2188 458.255 39.6665 458.255 40.2188V63.8281C458.255 65.9896 458.725 67.4609 459.664 68.2422C460.602 68.9974 461.984 69.375 463.81 69.375C464.227 69.375 464.618 69.362 464.983 69.3359C465.528 69.2634 466 69.6921 466 70.2412V73.0784C466 74.02 465.297 74.8106 464.357 74.8828C463.705 74.9609 463.04 75 462.362 75C458.633 75 455.843 74.1146 453.992 72.3438C452.141 70.5729 451.215 67.7474 451.215 63.8672V40.2188C451.215 39.6665 450.767 39.2188 450.214 39.2188H447.272C446.166 39.2188 445.269 38.3233 445.269 37.2188V35.5938C445.269 34.4892 446.166 33.5938 447.272 33.5938H450.214C450.767 33.5938 451.215 33.146 451.215 32.5938V24.6172C451.215 23.5126 452.111 22.6172 453.217 22.6172H456.253C457.359 22.6172 458.255 23.5126 458.255 24.6172V32.5938Z" fill="white"/>
<path fill-rule="evenodd" clip-rule="evenodd" d="M236.179 71.5223C236.665 72.8289 235.697 74.2188 234.301 74.2188H231.205C230.356 74.2188 229.6 73.6847 229.317 72.8857L224.31 58.7524C224.169 58.353 223.791 58.0859 223.366 58.0859H202.076C201.652 58.0859 201.274 58.3527 201.132 58.7518L196.115 72.887C195.832 73.6853 195.075 74.2188 194.227 74.2188H191.132C189.736 74.2188 188.768 72.8279 189.255 71.5212L208.769 19.154C209.06 18.371 209.809 17.8516 210.646 17.8516H214.824C215.661 17.8516 216.41 18.3715 216.701 19.1552L236.179 71.5223ZM203.964 50.7752C203.733 51.4261 204.216 52.1094 204.908 52.1094H220.542C221.233 52.1094 221.716 51.4266 221.486 50.7759L212.839 26.3627C212.824 26.3186 212.782 26.2891 212.735 26.2891C212.688 26.2891 212.646 26.3185 212.631 26.3627L203.964 50.7752Z" fill="white"/>
<path d="M426.377 32.8125C430.836 32.8125 434.291 34.1667 436.743 36.875C439.22 39.5573 440.458 43.2161 440.458 47.8516V72.2188C440.458 73.3233 439.562 74.2188 438.456 74.2188H435.655C434.549 74.2188 433.653 73.3233 433.653 72.2188V49.0625C433.653 45.7552 432.87 43.2292 431.306 41.4844C429.767 39.7135 427.433 38.8281 424.304 38.8281C422.166 38.8281 420.302 39.3099 418.711 40.2734C417.12 41.2109 415.882 42.5391 414.995 44.2578C414.135 45.9766 413.704 47.9948 413.704 50.3125V72.2188C413.704 73.3233 412.808 74.2188 411.702 74.2188H408.901C407.795 74.2188 406.898 73.3233 406.898 72.2188V35.5938C406.898 34.4892 407.795 33.5938 408.901 33.5938H411.702C412.808 33.5938 413.704 34.4892 413.704 35.5938V39.276C413.704 39.3307 413.749 39.375 413.803 39.375C413.839 39.375 413.872 39.356 413.889 39.3254C414.984 37.4468 416.565 35.9008 418.633 34.6875C420.719 33.4375 423.3 32.8125 426.377 32.8125Z" fill="white"/>
<path d="M47.3427 90C40.2574 90 33.8162 88.9279 28.0192 86.7838C22.2221 84.6397 17.2302 81.6021 13.0434 77.6712C8.85663 73.7046 5.63604 68.9696 3.38162 63.4663C1.12721 57.9631 0 51.8344 0 45.0804V44.9732C0 38.2906 1.10931 32.2156 3.32794 26.7481C5.58236 21.2448 8.74927 16.492 12.8287 12.4896C16.9081 8.4872 21.7748 5.41394 27.4287 3.2698C33.0826 1.08993 39.327 0 46.1618 0C54.8574 0 62.4437 1.69744 68.9207 5.09232C75.4334 8.45146 80.4969 13.1686 84.1111 19.2436C87.7253 25.3186 89.5325 32.4121 89.5325 40.5241V40.5777C89.5325 46.1525 88.6557 50.9768 86.9023 55.0506C85.1847 59.0887 82.7334 62.1977 79.5486 64.3776C76.3996 66.5575 72.6422 67.6474 68.2766 67.6474C64.8055 67.6474 61.8533 66.9863 59.4199 65.6641C57.0224 64.3419 55.3584 62.4657 54.428 60.0357L54.3428 59.8486C54.2313 59.6037 53.9846 59.4461 53.7125 59.4461C53.4312 59.4461 53.179 59.6152 53.0668 59.8699C51.9317 62.4481 50.3457 64.4152 48.3089 65.7713C46.1976 67.165 43.5675 67.8618 40.4184 67.8618C36.7684 67.8618 33.5657 66.9148 30.8103 65.0208C28.0907 63.1269 25.9615 60.4824 24.4228 57.0875C22.9199 53.6927 22.1684 49.7082 22.1684 45.134V45.0268C22.1684 40.6671 22.902 36.8434 24.3691 33.5557C25.8363 30.268 27.876 27.7129 30.4883 25.8904C33.1363 24.0679 36.178 23.1566 39.6133 23.1566C42.5476 23.1566 45.1062 23.8356 47.289 25.1936C49.3744 26.4567 50.9535 28.2417 52.0264 30.5485C52.1181 30.7457 52.3161 30.8755 52.536 30.8755C52.8398 30.8755 53.0861 30.6324 53.0861 30.3326V26.0795C53.0861 25.1757 53.8284 24.4431 54.7441 24.4431H65.0082C65.9239 24.4431 66.6663 25.1757 66.6663 26.0795V49.9583C66.6663 52.1024 67.0241 53.7641 67.7398 54.9434C68.4913 56.1227 69.5469 56.7123 70.9067 56.7123C72.2665 56.7123 73.4295 56.1227 74.3957 54.9434C75.3619 53.7284 76.1133 52.031 76.6501 49.8511C77.1868 47.6712 77.4552 45.0625 77.4552 42.025V41.9178C77.4552 35.4497 76.1849 29.8571 73.6442 25.14C71.1035 20.3871 67.4893 16.7242 62.8015 14.1513C58.1496 11.5783 52.603 10.2918 46.1618 10.2918C41.0447 10.2918 36.3927 11.1316 32.2059 12.8112C28.0549 14.455 24.4765 16.8136 21.4706 19.8868C18.4647 22.9601 16.1387 26.6409 14.4927 30.9291C12.8824 35.2174 12.0772 39.9524 12.0772 45.134V45.2412C12.0772 52.3526 13.5623 58.4634 16.5324 63.5736C19.5025 68.6837 23.725 72.6146 29.2 75.3663C34.675 78.0822 41.2057 79.4401 48.792 79.4401C50.3307 79.4401 51.8694 79.3687 53.4081 79.2257C54.9469 79.1185 56.414 78.9398 57.8096 78.6897C58.3681 78.6039 58.9037 78.5095 59.4164 78.4065C60.5008 78.1887 61.567 78.9796 61.567 80.0719V86.9889C61.567 87.7232 61.0722 88.371 60.3494 88.5452C58.6176 88.9626 56.769 89.2867 54.8037 89.5176C52.4062 89.8392 49.9192 90 47.3427 90ZM44.5515 55.8011C46.6628 55.8011 48.291 54.8898 49.4361 53.0673C50.617 51.2448 51.2074 48.7433 51.2074 45.5628V45.4556C51.2074 42.2394 50.617 39.7379 49.4361 37.9512C48.2552 36.1286 46.627 35.2174 44.5515 35.2174C43.1917 35.2174 42.0108 35.6284 41.0089 36.4503C40.0069 37.2722 39.2375 38.4515 38.7008 39.9881C38.164 41.489 37.8956 43.3115 37.8956 45.4556V45.5628C37.8956 47.6712 38.164 49.4937 38.7008 51.0304C39.2375 52.567 40.0069 53.7463 41.0089 54.5682C42.0108 55.3901 43.1917 55.8011 44.5515 55.8011Z" fill="white"/>
<path fill-rule="evenodd" clip-rule="evenodd" d="M140.463 71.4282C140.845 72.4931 140.045 73.6108 138.9 73.6108H129.88C129.156 73.6108 128.516 73.1476 128.298 72.4665L124.535 60.6877C124.426 60.3472 124.106 60.1156 123.744 60.1156H104.69C104.328 60.1156 104.008 60.3471 103.899 60.6876L100.134 72.4667C99.9166 73.1477 99.2766 73.6108 98.553 73.6108H89.5338C88.3887 73.6108 87.5883 72.4923 87.9713 71.4272L106.799 19.0635C107.034 18.4107 107.66 17.9744 108.362 17.9744H120.11C120.813 17.9744 121.439 18.4111 121.673 19.0645L140.463 71.4282ZM107.205 50.3389C107.037 50.8662 107.436 51.4032 107.996 51.4032H120.437C120.997 51.4032 121.396 50.8663 121.227 50.339L114.372 28.8826C114.351 28.8159 114.288 28.7706 114.217 28.7706C114.146 28.7706 114.084 28.8159 114.062 28.8826L107.205 50.3389Z" fill="white"/>
<path d="M178.236 25.9389C178.236 26.8427 177.494 27.5753 176.578 27.5753H162.473C162.016 27.5753 161.644 27.9416 161.644 28.3935V71.9744C161.644 72.8782 160.902 73.6108 159.986 73.6108H151.316C150.4 73.6108 149.658 72.8782 149.658 71.9744V28.3935C149.658 27.9416 149.287 27.5753 148.829 27.5753H134.765C133.849 27.5753 133.107 26.8427 133.107 25.9389V19.6108C133.107 18.7071 133.849 17.9744 134.765 17.9744H176.578C177.494 17.9744 178.236 18.7071 178.236 19.6108V25.9389Z" fill="white"/>
</svg>