<svg xmlns="http://www.w3.org/2000/svg" width="572" height="504" fill="none" viewBox="0 0 572 504"><path fill="#fff" d="M123.991 34.698c65.578 49.17 136.115 148.867 162.013 202.37 25.899-53.499 96.432-153.2 162.013-202.37C495.335-.782 572.002-28.233 572.002 59.12c0 17.446-10.015 146.552-15.889 167.512-20.417 72.871-94.817 91.458-160.997 80.208 115.681 19.664 145.11 84.798 81.556 149.931-120.701 123.701-173.483-31.037-187.014-70.687-2.479-7.268-3.639-10.669-3.656-7.777-.017-2.892-1.177.509-3.657 7.777-13.524 39.65-66.305 194.392-187.013 70.687C31.777 391.638 61.205 326.5 176.888 306.84c-66.182 11.25-140.583-7.337-160.997-80.208C10.017 205.67.002 76.564.002 59.12c0-87.353 76.67-59.901 123.985-24.422z"/></svg>