<svg xmlns="http://www.w3.org/2000/svg" width="117" height="26" fill="none" viewBox="0 0 117 26"><g clip-path="url(#a)"><path fill="#253442" d="M46.897 12.278c1.898.677 2.904 2.24 2.904 3.992 0 2.966-1.99 4.764-5.808 4.764h-7.8V4.408h7.543c3.63 0 5.387 1.845 5.387 4.296 0 1.636-.75 2.826-2.226 3.573M43.501 7h-4.146v4.342H43.5c1.616 0 2.483-.84 2.483-2.24C45.983 7.818 45.093 7 43.5 7m-4.146 11.419h4.474c1.78 0 2.74-.818 2.74-2.288q0-2.312-2.74-2.313h-4.474zm14.831 2.615h-2.95V4.408h2.95zm9.786-5.3v-6.75h2.952v12.05h-2.858v-1.752q-1.371 2.032-3.795 2.032c-2.553 0-4.217-1.54-4.217-4.343V8.985h2.952v7.495c0 1.518.75 2.289 2.272 2.289 1.43 0 2.694-1.051 2.694-3.035m16.386-.514v.7h-9.042c.21 2.078 1.359 3.106 3.139 3.106 1.359 0 2.273-.583 2.764-1.727h2.833c-.631 2.45-2.74 4.015-5.621 4.015-1.803 0-3.256-.583-4.356-1.727s-1.664-2.662-1.664-4.578c0-1.89.54-3.409 1.64-4.577 1.101-1.144 2.53-1.727 4.333-1.727 1.827 0 3.28.607 4.356 1.798 1.079 1.19 1.616 2.779 1.616 4.716zm-5.998-4.226c-1.616 0-2.74.934-3.021 2.87h6.067c-.258-1.75-1.335-2.87-3.044-2.87zM86.9 21.362c-3.515 0-5.366-1.379-5.53-4.158h2.881c.165 1.495.915 2.056 2.695 2.056 1.592 0 2.389-.491 2.389-1.448 0-.865-.562-1.284-2.366-1.588l-1.382-.233c-2.647-.445-3.96-1.66-3.96-3.643 0-2.266 1.805-3.643 5.013-3.643 3.445 0 5.225 1.353 5.341 4.086h-2.786c-.071-1.471-.937-1.985-2.555-1.985q-2.108 0-2.108 1.401c0 .84.61 1.215 2.015 1.471l1.523.235c2.929.536 4.192 1.61 4.192 3.665 0 2.43-1.966 3.784-5.363 3.784m18.316-.328h-3.373L98.33 15.43l-1.827 1.822v3.783h-2.904V4.408h2.904v9.574l4.919-4.997h3.514l-4.569 4.554zm7.708-9.013.985-3.036H117l-4.662 13.03c-.492 1.33-1.101 2.288-1.873 2.826-.773.536-1.874.793-3.326.793-.493 0-.914-.023-1.288-.07v-2.313h1.124c1.334 0 1.991-.818 1.991-1.938 0-.56-.188-1.377-.563-2.428l-3.467-9.902h3.14l.983 3.013a113 113 0 0 1 1.921 6.725 224 224 0 0 1 1.944-6.701"/><path fill="#029bff" d="M9.821 25.973c-1.845.206-3.145-.798-4.44-1.917-1.849-1.6-2.988-3.985-1.446-5.852C5.428 16.395 8.4 15.952 8.4 15.952s-3.623.475-5.88-1.526C1.37 13.406.726 12.07.566 10.527.36 8.541.024 4.478.001 2.978-.025 1.282.619.148 1.743.024 4.432-.275 7.59 2.247 10.66 5.977c2.983 3.625 4.152 6.189 4.152 6.189s1.169-2.564 4.152-6.19c3.07-3.729 6.228-6.25 8.917-5.952 1.123.125 1.768 1.258 1.742 2.954-.023 1.5-.359 5.563-.565 7.55-.16 1.543-.805 2.877-1.955 3.898-2.256 2-5.88 1.526-5.88 1.526s2.972.443 4.466 2.252c1.542 1.867.402 4.252-1.447 5.852-1.294 1.12-2.595 2.123-4.44 1.917-3.355-.375-4.99-6.609-4.99-6.609s-1.636 6.234-4.99 6.609"/></g><defs><clipPath id="a"><path fill="#fff" d="M0 0h117v26H0z"/></clipPath></defs></svg>