<svg width="572" height="504" viewBox="0 0 572 504" fill="none" xmlns="http://www.w3.org/2000/svg">
<path d="M123.991 34.6979C189.569 83.8681 260.106 183.565 286.004 237.068C311.903 183.569 382.436 83.8671 448.017 34.6979C495.335 -0.781314 572.002 -28.2331 572.002 59.12C572.002 76.5656 561.987 205.672 556.113 226.632C535.696 299.503 461.296 318.09 395.116 306.84C510.797 326.504 540.226 391.638 476.672 456.771C355.971 580.472 303.189 425.734 289.658 386.084C287.179 378.816 286.019 375.415 286.002 378.307C285.985 375.415 284.825 378.816 282.345 386.084C268.821 425.734 216.04 580.476 95.3321 456.771C31.7774 391.638 61.2046 326.5 176.888 306.84C110.706 318.09 36.305 299.503 15.8906 226.632C10.0166 205.67 0.00195312 76.5637 0.00195312 59.12C0.00195312 -28.2331 76.6712 -0.781314 123.987 34.6979H123.991Z" fill="white"/>
</svg>
