<?xml version="1.0" encoding="UTF-8"?>
<svg width="2331px" height="552px" viewBox="0 0 2331 552" version="1.1" xmlns="http://www.w3.org/2000/svg" xmlns:xlink="http://www.w3.org/1999/xlink">
    <title>Wordmark Pink</title>
    <defs>
        <path d="M1271.84426,312 C1306.00049,312 1323.68853,293.150981 1323.68853,259.10114 L1323.68853,227.483431 L1348.69576,203.162116 L1421.27773,279.166225 C1447.50483,306.527704 1478.00146,321.728526 1502.39876,301.055408 C1531.06559,277.342126 1515.81727,248.156549 1492.0299,222.619168 L1419.44793,144.182928 L1471.90213,91.2840683 C1508.49808,56.0181619 1504.22856,32.9129128 1484.71071,13.455861 C1460.31341,-11.4734867 1430.42672,4.33536794 1402.97976,31.6968471 L1323.68853,113.781284 L1323.68853,55.3309911 C1323.68853,19.4570518 1305.39055,0 1271.84426,0 C1238.29798,0 1220,18.849019 1220,55.3309911 L1220,259.10114 C1220,292.542948 1237.68804,312 1271.84426,312 Z" id="path-1"></path>
        <path d="M1022.688,311 C1057.34937,311 1075.5922,289.090917 1075.5922,255.010121 L1075.5922,157.63642 C1075.5922,118.078353 1087.14599,96.777856 1134.57733,92.5177566 L1147.9554,91.3005853 C1179.5763,88.2576571 1191.13009,62.6970604 1189.9139,41.3965631 C1188.69771,20.7046515 1171.06298,-0.595845785 1143.69874,0.0127398517 C1106.605,1.22991112 1083.49742,24.9647509 1072.55173,56.0026184 C1072.55173,22.5304084 1053.70081,0.621325488 1020.86372,0.621325488 C991.067108,0.621325488 971,21.3132371 971,56.0026184 L971,255.010121 C971,288.482331 989.850919,311 1022.688,311 Z" id="path-2"></path>
        <path d="M764.081761,313 C805.42348,313 833.389937,303.886219 844.333333,274.114533 C847.373166,302.063462 868.044025,311.784829 892.97065,311.784829 C923.976939,311.784829 941,291.73451 941,258.924897 L941,133.154714 C941,42.6244853 892.362683,-2.33683627 796.91195,0.0935054318 C775.025157,0.0935054318 734.291405,6.1693597 699.02935,29.2576059 C656.471698,55.9913647 691.733753,116.749907 731.251572,91.2313194 C759.218029,73.0037566 779.888889,68.1430732 795.696017,68.1430732 C830.350105,68.1430732 842.509434,86.9782214 842.509434,117.965078 L842.509434,141.053324 L821.230608,133.154714 C737.331237,102.775442 651,143.483666 651,213.35599 C651,269.253849 695.381551,313 764.081761,313 Z M745.842767,210.925648 C745.842767,188.444988 773.809224,167.787083 820.014675,179.938792 L842.509434,183.584304 L842.509434,190.267744 C842.509434,222.469771 818.190776,244.950432 787.792453,244.950432 C760.433962,244.950432 745.842767,230.368382 745.842767,210.925648 Z" id="path-3"></path>
        <path d="M348.766917,384 C382.263158,384 400.533835,362.127694 400.533835,328.104107 L402.360902,268.543312 C419.413534,295.27613 453.518797,312.287924 491.887218,312.287924 C569.233083,312.287924 621,252.746647 621,156.143962 C621,59.5412773 569.233083,0 491.887218,0 C452.300752,0 416.977444,18.2269216 400.533835,47.3899962 C398.097744,18.2269216 380.43609,1.21512811 349.37594,1.21512811 C317.097744,1.21512811 298.827068,20.0496138 298.827068,54.0732008 L297,328.104107 C297,361.52013 314.661654,384 348.766917,384 Z M459,235.127289 C424.285714,235.127289 400.533835,211.432291 400.533835,156.143962 C400.533835,101.463197 424.285714,77.1606349 459,77.1606349 C493.105263,77.1606349 517.466165,100.855633 517.466165,156.143962 C517.466165,210.824727 493.714286,235.127289 459,235.127289 Z" id="path-4"></path>
        <path d="M132.587699,312.9714 C214.08656,314.189187 267,276.437773 267,214.939502 C267,172.316938 238.414579,140.654462 186.71754,130.303268 L124.072893,118.125392 C107.04328,114.472029 101.569476,104.729729 101.569476,94.3785349 C101.569476,79.7650844 115.558087,66.9783151 142.927107,66.9783151 C161.781321,66.9783151 177.594533,76.7206155 199.489749,93.7696412 C235.373576,120.560967 275.514806,69.4138902 243.888383,37.1425202 C215.911162,7.91561906 180.027335,0 139.277904,0 C60.2118451,0 0,37.1425202 0,96.2052163 C0,141.263356 32.8428246,171.09915 82.715262,182.668132 L146.57631,197.890477 C162.389522,200.934945 171.512528,207.632777 171.512528,220.419546 C171.512528,234.424103 159.95672,246.601978 130.763098,246.601978 C108.867882,246.601978 89.405467,239.295253 60.8200456,216.15729 C23.1116173,187.539282 -20.6788155,241.730828 18.2460137,277.655561 C46.2232346,303.837993 93.0546697,312.362506 132.587699,312.9714 Z" id="path-5"></path>
    </defs>
    <g id="Wordmark-Pink" stroke="none" fill="none" fill-rule="nonzero" transform="translate(0, 0.502)">
        <g id="Stack-Copy" transform="translate(655, 117.498)" fill="#FF0090">
            <g id="Path">
                <use xlink:href="#path-1"></use>
                <use xlink:href="#path-1"></use>
            </g>
            <g id="Path">
                <use xlink:href="#path-2"></use>
                <use xlink:href="#path-2"></use>
            </g>
            <g id="Shape">
                <use xlink:href="#path-3"></use>
                <use xlink:href="#path-3"></use>
            </g>
            <g id="Shape">
                <use xlink:href="#path-4"></use>
                <use xlink:href="#path-4"></use>
            </g>
            <g id="Path">
                <use xlink:href="#path-5"></use>
                <use xlink:href="#path-5"></use>
            </g>
        </g>
        <g id="Petals" stroke-width="1" fill-rule="evenodd" transform="translate(44, 0.6771)" fill="#FF0090">
            <path d="M274.32296,37.8229389 C300.987094,37.8229389 322.602645,59.4384902 322.602645,86.102624 C322.602645,90.3418527 322.044313,94.5626181 320.942053,98.6560374 L273.504494,274.822939 L273.504494,274.822939 L227.311093,98.7604446 C220.498952,72.7965075 236.02455,46.2262463 261.988487,39.4141053 C266.014875,38.3577046 270.160295,37.8229389 274.32296,37.8229389 Z" id="Ellipse-33" fill-rule="nonzero"></path>
            <path d="M478.846963,156.525512 C492.253587,179.691464 484.342089,209.339395 461.176137,222.746019 C457.501047,224.872871 453.562382,226.507516 449.461311,227.607968 L273.504494,274.822939 L273.504494,274.822939 L402.410225,146.425556 C421.44596,127.46489 452.248128,127.525745 471.208794,146.561479 C474.174539,149.538966 476.74197,152.888194 478.846963,156.525512 Z" id="Ellipse-34" fill-rule="nonzero"></path>
            <path d="M478.600068,392.165035 C464.964258,415.525581 434.972785,423.409038 411.612239,409.773227 C408.031973,407.683386 404.731527,405.147437 401.790069,402.22621 L273.504494,274.822939 L273.504494,274.822939 L449.320331,321.324516 C475.03538,328.125896 490.367939,354.48567 483.566559,380.20072 C482.457402,384.394283 480.786798,388.418782 478.600068,392.165035 Z" id="Ellipse-35" fill-rule="nonzero"></path>
            <path d="M68.0749529,394.115919 C54.5704998,370.665824 62.6330354,340.708244 86.0831302,327.203791 C89.7443507,325.095365 93.6628966,323.469331 97.7412531,322.366153 L273.504494,274.822939 L273.504494,274.822939 L144.719701,404.165199 C125.759086,423.207888 94.9513209,423.274423 75.9086317,404.313808 C72.8577325,401.276058 70.2235065,397.846821 68.0749529,394.115919 Z" id="Ellipse-36" fill-rule="nonzero"></path>
            <path d="M68.3514815,155.841722 C81.8353636,132.546998 111.650314,124.593739 134.945038,138.077621 C138.643564,140.218471 142.044445,142.83648 145.060183,145.864294 L273.504494,274.822939 L273.504494,274.822939 L97.879772,227.424691 C71.8514255,220.400065 56.4458664,193.605336 63.4704926,167.57699 C64.5791088,163.469234 66.2200104,159.524046 68.3514815,155.841722 Z" id="Ellipse-37" fill-rule="nonzero"></path>
            <path d="M273.5,511.822939 C246.589346,511.822939 224.77395,490.007543 224.77395,463.096889 C224.77395,458.838911 225.332072,454.599301 226.434053,450.486393 L273.5,274.822939 L273.5,274.822939 L320.565947,450.486393 C327.530531,476.480197 312.104301,503.198251 286.110496,510.162836 C281.997588,511.264817 277.757978,511.822939 273.5,511.822939 Z" id="Ellipse-38" fill-rule="nonzero"></path>
        </g>
    </g>
</svg>