<svg xmlns="http://www.w3.org/2000/svg" width="1437" height="1341" fill="none" viewBox="0 0 1437 1341"><path fill="#fff" fill-rule="evenodd" d="m756.32 171.886 83.883-119.997c17.916-25.63 53.195-31.868 78.798-13.933s31.834 53.251 13.918 78.881l-83.883 119.997 124.957-22.094c30.777-5.441 60.127 15.121 65.557 45.926 5.44 30.804-15.1 60.187-45.874 65.628l-124.957 22.094 119.872 83.971c25.599 17.935 31.829 53.252 13.919 78.881-17.918 25.63-53.197 31.868-78.8 13.933l-119.872-83.971 22.071 125.087c5.436 30.805-15.104 60.188-45.877 65.629-30.772 5.441-60.125-15.12-65.56-45.925l-22.071-125.088-192.882 275.924c-17.916 25.629-53.195 31.867-78.798 13.932s-31.834-53.251-13.918-78.88l192.882-275.924-124.957 22.094c-30.772 5.441-60.125-15.121-65.56-45.925-5.435-30.805 15.105-60.188 45.877-65.629l124.957-22.094-119.872-83.971c-25.603-17.935-31.834-53.251-13.918-78.881 17.917-25.63 53.196-31.867 78.798-13.932l119.872 83.971-22.07-125.088c-5.436-30.805 15.104-60.188 45.877-65.63 30.772-5.44 60.125 15.121 65.56 45.926z" clip-rule="evenodd"/><path fill="#fff" d="M147.126 1249.05c-80.094 0-126.425-28.84-141.704-63.6C1.725 1177.31 0 1168.93 0 1160.8c0-25.15 18.976-42.4 44.852-42.4 19.716 0 33.024 6.16 47.07 25.88 12.323 17.5 33.024 24.65 56.436 24.65 31.298 0 50.52-12.82 50.52-30.32 0-16.76-13.8-23.91-53.724-31.06l-35.734-6.41C38.691 1088.57 0 1052.82 0 997.602 0 926.113 61.61 881 146.14 881c70.482 0 121.003 24.898 139.486 69.271 2.957 7.149 4.436 13.805 4.436 21.94 0 23.666-17.251 39.689-43.374 39.939-22.18 0-36.227-7.65-48.796-26.627-11.582-17.749-28.094-24.405-50.52-24.405-29.08 0-43.867 12.819-43.867 28.842 0 16.02 15.28 23.67 50.767 30.08l35.734 6.4c76.397 13.81 112.378 45.12 112.378 102.8 0 73.22-57.175 119.81-155.258 119.81M386.174 1341c-29.573 0-50.521-16.52-50.521-52.26v-271.91c0-35.744 20.948-52.261 50.521-52.261s50.767 16.517 50.767 52.511v1.68a1.027 1.027 0 0 0 1.984.38c13.181-32.889 41.893-52.352 80.82-52.352 68.511 0 106.463 50.042 106.463 140.022 0 89.73-37.706 140.02-105.231 140.02-39.856 0-69.279-18.93-82.013-50.28a1.19 1.19 0 0 0-1.096-.75c-.648 0-1.174.53-1.174 1.18v91.76c0 35.74-20.947 52.26-50.52 52.26m93.401-172.07c26.616 0 43.127-24.16 43.127-62.12 0-37.72-16.758-62.12-43.127-62.12s-43.127 24.4-43.374 62.37c.247 38.21 16.758 61.87 43.374 61.87m259.503 77.9c-49.535 0-91.676-34.02-91.676-83.08 0-52.26 40.17-80.61 112.87-85.04l46.362-2.88c2.746-.17 4.119-.25 5.26-.58a11.03 11.03 0 0 0 7.765-8.26c.252-1.16.252-2.54.252-5.29 0-18.25-13.801-28.11-32.777-28.11-15.772 0-23.658 4.19-41.156 20.22-11.829 10.84-24.644 16.27-39.677 16.27-23.905 0-40.909-14.79-40.909-35.75 0-6.16.493-10.1 1.971-15.03 10.351-34.763 57.421-55.47 125.193-55.47 75.411 0 125.931 37.72 125.931 92.94v141.5c0 35-20.947 50.78-50.027 50.78-26.258 0-44.84-12.72-48.411-41.46-.083-.67-.648-1.19-1.322-1.19-.485 0-.931.27-1.166.7-14.491 26.17-47.214 39.73-78.483 39.73m37.706-67.54c22.426 0 43.127-12.58 43.127-32.55 0-5.49 0-8.23-.921-10.34a11.05 11.05 0 0 0-6.396-5.98c-2.168-.77-4.904-.58-10.378-.2l-25.186 1.73c-19.223 1.48-30.066 10.6-30.066 23.92 0 14.79 12.076 23.42 29.82 23.42m230.426 69.76c-31.055 0-50.524-17.75-50.524-52.26v-181.68c0-32.792 19.715-50.541 49.284-50.541 28.34 0 47.81 17.749 47.81 50.781v8.8c0 .58.48 1.06 1.07 1.06.52 0 .97-.39 1.06-.9 6.53-38.589 24.45-57.522 51.35-57.522 10.11 0 18.48 2.465 24.65 7.149 10.1 7.395 15.27 20.461 15.27 39.193 0 16.03-4.68 28.11-14.04 36.49-9.37 8.38-23.41 12.82-41.9 13.56-27.11.98-33.51 9.86-33.51 39.68v93.93c0 34.51-19.47 52.26-50.52 52.26m213.17 0c-29.57 0-50.52-16.52-50.52-52.26V933.262c0-35.745 20.95-52.262 50.52-52.262s50.52 16.517 50.52 52.508v131.742c0 .76.62 1.38 1.38 1.38.38 0 .74-.16 1-.43l75.99-80.184c14.29-15.037 26.12-21.447 41.89-21.447 26.62 0 45.84 18.735 45.84 44.621 0 16.02-4.93 25.64-20.21 39.93l-33.1 30.87c-6.77 6.32-10.15 9.47-10.56 13.62s2.3 7.9 7.71 15.42l39.4 54.72c11.58 16.27 15.04 25.15 15.04 38.21 0 28.35-19.72 47.09-49.05 47.09-23.9 0-36.72-8.88-54.21-36.98l-28.17-45.61c-3.93-6.36-5.9-9.54-8.6-10.94a11.05 11.05 0 0 0-7.23-1.02c-2.99.6-5.76 3.11-11.29 8.14-2.18 1.99-3.27 2.98-4.05 4.17-.64.99-1.12 2.08-1.42 3.22-.36 1.37-.36 2.85-.36 5.8v20.96c0 35.74-20.95 52.26-50.52 52.26"/></svg>