<svg xmlns="http://www.w3.org/2000/svg" width="34" height="40" fill="none" viewBox="0 0 34 40"><path fill="#ff2696" d="M24.41 16.52c1.622-1.114 3.744-1.106 5.268.022a4.22 4.22 0 0 1 1.567 2.291c.5 1.833-.258 3.82-1.88 4.934l-.359.248a5.4 5.4 0 0 1-1.493.716l-.887.267c-1.735.522-3.57-.1-4.557-1.542-.986-1.443-.902-3.383.208-4.817l.569-.734a5.4 5.4 0 0 1 1.205-1.138zm-4.9 7.372c-.302-.663-.453-.995-.656-1.082-.202-.087-.43.052-.884.329L1.88 33.884c-1.94 1.181-2.577 1.77-.96 4.314s2.376 2.042 4.174.653l16.184-10.874c.422-.326.632-.488.624-.71-.008-.22-.262-.48-.77-1.002a8.4 8.4 0 0 1-1.622-2.373"/><path fill="#ff2696" d="M33.512 16.128c-.099.273-.43.28-.55.015a5.8 5.8 0 0 0-1.883-2.32c-2.19-1.588-5.285-1.536-7.684.131l-.532.37a8.3 8.3 0 0 0-1.792 1.688l-.851 1.081a7 7 0 0 0-.305.42c-.431.645-.647.967-.9.932-.254-.035-.358-.338-.565-.944a8 8 0 0 1-.387-1.932q-.128-1.621.24-2.811.39-1.215.945-2.197.552-1.006 1.017-1.907.462-.924.523-1.992.01-.173.105-.206.117-.057.246.031a7.4 7.4 0 0 1 1.537 1.589q.436.58.825 1.23c.176.295.264.442.395.434.13-.008.193-.153.319-.444q.563-1.3.725-3.344.205-2.635-.348-5.634-.033-.148.031-.229.011-.014.02-.022l.023-.022q.089-.077.243-.023 2.76 1.076 4.713 3.004t3.04 4.292q1.11 2.363 1.301 4.77c.129 1.622-.094 2.361-.451 4.04"/></svg>
