<?xml version="1.0" encoding="UTF-8"?>
<svg width="711px" height="711px" viewBox="0 0 711 711" version="1.1" xmlns="http://www.w3.org/2000/svg" xmlns:xlink="http://www.w3.org/1999/xlink">
    <title>Profile</title>
    <defs>
        <path d="M0,0 L711,0 L711,711 L0,711 L0,0 Z" id="path-1"></path>
    </defs>
    <g id="Profile" stroke="none" fill="none" fill-rule="nonzero" xlink:href="#path-1">
        <use fill="#F0117A" xlink:href="#path-1"></use>
        <path d="M203.712573,279.640637 C203.700964,204.6709 258.563394,140.950476 332.789735,129.722894 C407.016077,118.495312 478.314023,163.132539 500.535434,234.74279 C522.756845,306.353041 489.227992,383.429694 421.65068,416.084299 C540.716548,446.300705 624.054707,553.36823 623.999973,676.049666 C623.999973,695.381728 608.309217,711 589.00147,711 L122.049463,711 C102.735226,710.944275 87.0839376,695.337234 87.0000214,676.049666 C86.9511967,553.353486 170.314157,446.281056 289.400253,416.084299 C236.990847,390.759109 203.702039,337.732344 203.712573,279.589763" id="Shape" fill="#FFFFFF" fill-rule="evenodd"></path>
    </g>
</svg>