<?xml version="1.0" encoding="UTF-8"?>
<svg width="551px" height="551px" viewBox="0 0 551 551" version="1.1" xmlns="http://www.w3.org/2000/svg" xmlns:xlink="http://www.w3.org/1999/xlink">
    <title>Icon White</title>
    <g id="Icon-White" stroke="none" fill="none" fill-rule="nonzero" stroke-width="1">
        <g id="Petals" fill-rule="evenodd" transform="translate(2, 0.1791)" fill="#FFFFFF">
            <path d="M274.32296,37.8229389 C300.987094,37.8229389 322.602645,59.4384902 322.602645,86.102624 C322.602645,90.3418527 322.044313,94.5626181 320.942053,98.6560374 L273.504494,274.822939 L273.504494,274.822939 L227.311093,98.7604446 C220.498952,72.7965075 236.02455,46.2262463 261.988487,39.4141053 C266.014875,38.3577046 270.160295,37.8229389 274.32296,37.8229389 Z" id="Ellipse-33" fill-rule="nonzero"></path>
            <path d="M478.846963,156.525512 C492.253587,179.691464 484.342089,209.339395 461.176137,222.746019 C457.501047,224.872871 453.562382,226.507516 449.461311,227.607968 L273.504494,274.822939 L273.504494,274.822939 L402.410225,146.425556 C421.44596,127.46489 452.248128,127.525745 471.208794,146.561479 C474.174539,149.538966 476.74197,152.888194 478.846963,156.525512 Z" id="Ellipse-34" fill-rule="nonzero"></path>
            <path d="M478.600068,392.165035 C464.964258,415.525581 434.972785,423.409038 411.612239,409.773227 C408.031973,407.683386 404.731527,405.147437 401.790069,402.22621 L273.504494,274.822939 L273.504494,274.822939 L449.320331,321.324516 C475.03538,328.125896 490.367939,354.48567 483.566559,380.20072 C482.457402,384.394283 480.786798,388.418782 478.600068,392.165035 Z" id="Ellipse-35" fill-rule="nonzero"></path>
            <path d="M68.0749529,394.115919 C54.5704998,370.665824 62.6330354,340.708244 86.0831302,327.203791 C89.7443507,325.095365 93.6628966,323.469331 97.7412531,322.366153 L273.504494,274.822939 L273.504494,274.822939 L144.719701,404.165199 C125.759086,423.207888 94.9513209,423.274423 75.9086317,404.313808 C72.8577325,401.276058 70.2235065,397.846821 68.0749529,394.115919 Z" id="Ellipse-36" fill-rule="nonzero"></path>
            <path d="M68.3514815,155.841722 C81.8353636,132.546998 111.650314,124.593739 134.945038,138.077621 C138.643564,140.218471 142.044445,142.83648 145.060183,145.864294 L273.504494,274.822939 L273.504494,274.822939 L97.879772,227.424691 C71.8514255,220.400065 56.4458664,193.605336 63.4704926,167.57699 C64.5791088,163.469234 66.2200104,159.524046 68.3514815,155.841722 Z" id="Ellipse-37" fill-rule="nonzero"></path>
            <path d="M273.5,511.822939 C246.589346,511.822939 224.77395,490.007543 224.77395,463.096889 C224.77395,458.838911 225.332072,454.599301 226.434053,450.486393 L273.5,274.822939 L273.5,274.822939 L320.565947,450.486393 C327.530531,476.480197 312.104301,503.198251 286.110496,510.162836 C281.997588,511.264817 277.757978,511.822939 273.5,511.822939 Z" id="Ellipse-38" fill-rule="nonzero"></path>
        </g>
    </g>
</svg>