<svg xmlns="http://www.w3.org/2000/svg" width="541" height="641" fill="none" viewBox="0 0 541 641"><path fill="#fff" fill-rule="evenodd" d="m302.278 144.782 70.484-101.076c15.054-21.588 44.698-26.842 66.211-11.735s26.749 44.854 11.694 66.442L380.184 199.49l104.996-18.61c25.857-4.583 50.52 12.736 55.087 38.683s-12.691 50.697-38.548 55.28l-104.997 18.61 100.724 70.73c21.513 15.107 26.749 44.854 11.695 66.442-15.055 21.588-44.698 26.842-66.211 11.736l-100.724-70.73 18.546 105.363c4.567 25.947-12.692 50.697-38.549 55.28s-50.521-12.736-55.088-38.684L248.57 388.226 86.5 620.64c-15.055 21.588-44.698 26.843-66.211 11.736s-26.75-44.854-11.695-66.442L170.665 333.52 65.669 352.13c-25.857 4.583-50.52-12.737-55.088-38.684s12.692-50.697 38.549-55.28l104.996-18.61-100.723-70.73c-21.513-15.107-26.75-44.854-11.695-66.442s44.698-26.842 66.211-11.736l100.723 70.73-18.545-105.363C185.53 30.068 202.789 5.318 228.646.735s50.52 12.736 55.087 38.684z" clip-rule="evenodd"/></svg>