<?xml version="1.0" encoding="UTF-8"?>
<svg width="594px" height="596px" viewBox="0 0 594 596" version="1.1" xmlns="http://www.w3.org/2000/svg" xmlns:xlink="http://www.w3.org/1999/xlink">
    <title>Icon Full</title>
    <g id="Icon-Full" stroke="none" fill="none" fill-rule="nonzero" stroke-width="1">
        <g id="Petals" fill-rule="evenodd" transform="translate(11.0052, -0)" fill="#FFFFFF">
            <path d="M543.336753,144.954525 C560.481509,175.457751 549.65233,214.084073 519.149103,231.228829 C514.679169,233.741217 509.92077,235.701684 504.978325,237.067207 L286.100054,297.54 L286.100054,297.54 L447.173106,132.347404 C470.525591,108.397664 508.871621,107.913493 532.82136,131.265979 C536.962038,135.303397 540.503121,139.913047 543.336753,144.954525 Z" id="Ellipse-34" fill-rule="nonzero"></path>
            <path d="M543.027464,448.980159 C526.430255,478.273585 489.228546,488.565903 459.93512,471.968694 C454.952606,469.145678 450.392717,465.634688 446.389923,461.539262 L286.100054,297.54 L286.100054,297.54 L504.770377,357.124404 C538.346041,366.273272 558.147872,400.908349 548.999004,434.484014 C547.619738,439.545819 545.6137,444.415553 543.027464,448.980159 Z" id="Ellipse-35" fill-rule="nonzero"></path>
            <path d="M28.7688727,451.285047 C11.5091731,420.449081 22.5149116,381.459841 53.3508776,364.200141 C57.8013659,361.709086 62.5337315,359.759082 67.4472152,358.391646 L286.100054,297.54 L286.100054,297.54 L125.174389,463.826848 C101.904662,487.871797 63.548539,488.50024 39.5035895,465.230513 C35.2656994,461.129255 31.6493188,456.431217 28.7688727,451.285047 Z" id="Ellipse-36" fill-rule="nonzero"></path>
            <path d="M29.1006921,144.159656 C45.5308847,114.95027 82.529073,104.590688 111.738459,121.02088 C116.848006,123.894985 121.514099,127.494355 125.591278,131.706784 L286.100054,297.54 L286.100054,297.54 L67.6137007,236.861043 C33.6814047,227.437221 13.8133603,192.290144 23.2371816,158.357848 C24.6123949,153.406126 26.5811808,148.638811 29.1006921,144.159656 Z" id="Ellipse-37" fill-rule="nonzero"></path>
            <path d="M286.100054,595.08 C250.793584,595.08 222.172035,566.458451 222.172035,531.15198 C222.172035,525.23585 222.993266,519.348356 224.612217,513.65805 L286.100054,297.54 L286.100054,297.54 L347.587892,513.65805 C357.249522,547.616845 337.552779,582.978186 303.593985,592.639817 C297.903678,594.258769 292.016184,595.08 286.100054,595.08 Z" id="Ellipse-38" fill-rule="nonzero"></path>
            <path d="M286.100054,297.54 C250.793584,297.54 222.172035,268.918451 222.172035,233.61198 C222.172035,227.69585 222.993266,221.808356 224.612217,216.11805 L286.100054,8.52651283e-14 L286.100054,8.52651283e-14 L347.587892,216.11805 C357.249522,250.076845 337.552779,285.438186 303.593985,295.099817 C297.903678,296.718769 292.016184,297.54 286.100054,297.54 Z" id="Ellipse-38" fill-rule="nonzero" transform="translate(286.1001, 148.77) rotate(180) translate(-286.1001, -148.77)"></path>
        </g>
    </g>
</svg>