<svg width="19" height="18" viewBox="0 0 19 18" fill="none" xmlns="http://www.w3.org/2000/svg">
<path fill-rule="evenodd" clip-rule="evenodd" d="M9.5 2.06299C10.0178 2.06299 10.4375 2.48272 10.4375 3.00049V8.06299H15.5C16.0178 8.06299 16.4375 8.48269 16.4375 9.00049C16.4375 9.51829 16.0178 9.93799 15.5 9.93799H10.4375V15.0005C10.4375 15.5183 10.0178 15.938 9.5 15.938C8.9822 15.938 8.5625 15.5183 8.5625 15.0005V9.93799H3.5C2.98223 9.93799 2.5625 9.51829 2.5625 9.00049C2.5625 8.48269 2.98223 8.06299 3.5 8.06299H8.5625V3.00049C8.5625 2.48272 8.9822 2.06299 9.5 2.06299Z" fill="white"/>
</svg>
