<svg xmlns="http://www.w3.org/2000/svg" width="33" height="32" fill="none" viewBox="0 0 33 32"><path fill="url(#a)" fill-rule="evenodd" d="M23.963 2.575c-1.791-.241-4.086-.241-7.007-.241h-.152c-2.921 0-5.215 0-7.007.24-1.835.247-3.291.763-4.436 1.908-1.144 1.144-1.66 2.6-1.907 4.436-.24 1.791-.24 4.085-.24 7.006v.153c0 2.92 0 5.215.24 7.006.247 1.836.763 3.292 1.907 4.436s2.6 1.66 4.436 1.907c1.792.241 4.086.241 7.007.241h.152c2.921 0 5.216 0 7.007-.24 1.835-.247 3.292-.764 4.436-1.908s1.66-2.6 1.907-4.436c.24-1.791.24-4.085.24-7.006v-.153c0-2.92 0-5.215-.24-7.006-.247-1.836-.763-3.292-1.907-4.436s-2.6-1.66-4.436-1.907m-5.75 8.092a1.333 1.333 0 0 0-2.666 0v4h-4a1.333 1.333 0 1 0 0 2.667h4v4a1.333 1.333 0 1 0 2.666 0v-4h4a1.333 1.333 0 1 0 0-2.667h-4z" clip-rule="evenodd"/><defs><linearGradient id="a" x1="-2.134" x2="48.44" y1="29.745" y2="5.244" gradientUnits="userSpaceOnUse"><stop stop-color="#ff97cd"/><stop offset="1" stop-color="#ff349d"/></linearGradient></defs></svg>