<svg xmlns="http://www.w3.org/2000/svg" width="23" height="22" fill="none" viewBox="0 0 23 22"><path fill="#fff" fill-rule="evenodd" d="M16.693 11.688c.506 0 .916.41.916.917v2.291h2.292a.917.917 0 0 1 0 1.834h-2.292v2.291a.917.917 0 1 1-1.833 0V16.73h-2.292a.917.917 0 1 1 0-1.834h2.292v-2.291c0-.507.41-.917.917-.917" clip-rule="evenodd"/><path fill="#fff" d="M14.63 19.021h-11a.687.687 0 0 1-.687-.687 7.11 7.11 0 0 1 5.495-6.921 4.814 4.814 0 0 1 1.609-9.35 4.812 4.812 0 0 1 1.608 9.35 7.1 7.1 0 0 1 2.975 1.493v.845h-1.146a2.062 2.062 0 1 0 0 4.124h1.146z"/></svg>