<svg width="22" height="24" viewBox="0 0 22 24" fill="none" xmlns="http://www.w3.org/2000/svg">
<g clip-path="url(#clip0_19570_297)">
<path fill-rule="evenodd" clip-rule="evenodd" d="M6.27918 7.81079L6.2727 7.8187C6.86142 8.29586 7.35913 8.7056 7.69215 9.07207C8.05815 9.47483 8.39457 10.0092 8.21645 10.6686C8.04305 11.3105 7.49931 11.6247 6.98411 11.8212C6.47194 12.0165 5.76453 12.1769 4.91947 12.3683L3.76571 12.6298C3.26905 12.7424 2.78002 12.8533 2.41941 12.8829C2.03195 12.9146 1.59607 12.8781 1.22228 12.5754C0.848492 12.2727 0.723515 11.8551 0.674066 11.4695C0.628028 11.1108 0.634765 10.6106 0.64162 10.1016L0.657568 8.91712C0.669155 8.0507 0.678887 7.32538 0.763462 6.78382C0.848613 6.23906 1.04289 5.64184 1.63463 5.33876C2.24259 5.02746 2.83526 5.24542 3.30532 5.51968C3.73514 5.77048 4.24237 6.17495 4.83537 6.65478L4.84176 6.64679C5.5022 5.83122 6.31638 5.15283 7.23865 4.65208C8.16093 4.15133 9.17299 3.83706 10.2167 3.72737C11.2604 3.61767 12.3157 3.71465 13.3219 4.01271C14.3281 4.31077 15.2656 4.80505 16.0811 5.46549C16.478 5.78701 16.5393 6.36923 16.2178 6.76619C15.8964 7.163 15.3141 7.22421 14.9171 6.9029C14.2904 6.39535 13.5693 6.01622 12.796 5.78716C12.0228 5.55816 11.2121 5.48357 10.4101 5.56786C9.60813 5.65215 8.83068 5.89366 8.12198 6.27842C7.41321 6.66325 6.78673 7.18402 6.27918 7.81079Z" fill="white"/>
<path fill-rule="evenodd" clip-rule="evenodd" d="M14.3092 14.9281C14.6422 15.2945 15.1399 15.7043 15.7287 16.1814L15.7222 16.1894C15.2146 16.8161 14.5881 17.3369 13.8794 17.7217C13.1707 18.1065 12.3932 18.348 11.5912 18.4323C10.7892 18.5166 9.97856 18.442 9.20534 18.213C8.43205 17.9839 7.71099 17.6048 7.08422 17.0972C6.68726 16.7759 6.10499 16.8371 5.78351 17.2339C5.46206 17.6309 5.52335 18.2131 5.92022 18.5347C6.7358 19.1951 7.67323 19.6894 8.67946 19.9874C9.68569 20.2855 10.741 20.3825 11.7847 20.2728C12.8284 20.1631 13.8404 19.8488 14.7627 19.3481C15.685 18.8473 16.4991 18.1689 17.1596 17.3533L17.163 17.3429C17.756 17.8227 18.2662 18.2297 18.696 18.4805C19.1661 18.7547 19.7588 18.9727 20.3667 18.6614C20.9585 18.3583 21.1527 17.7611 21.2379 17.2163C21.3225 16.6748 21.3322 15.9494 21.3438 15.083L21.3597 13.8986C21.3666 13.3896 21.3733 12.8893 21.3273 12.5306C21.2778 12.1451 21.1529 11.7274 20.7791 11.4247C20.4053 11.122 19.9694 11.0855 19.5819 11.1173C19.2213 11.1468 18.7323 11.2577 18.2356 11.3703L17.0819 11.6318C16.2368 11.8233 15.5294 11.9836 15.0172 12.1789C14.502 12.3755 13.9583 12.6897 13.7849 13.3315C13.6068 13.9909 13.9432 14.5253 14.3092 14.9281Z" fill="white"/>
</g>
<defs>
<clipPath id="clip0_19570_297">
<rect width="22" height="22" fill="white" transform="translate(0 1)"/>
</clipPath>
</defs>
</svg>
