<svg xmlns="http://www.w3.org/2000/svg" width="23" height="24" fill="none" viewBox="0 0 23 24"><path fill="#fff" fill-rule="evenodd" d="M20.016 12.003c0-.481-.246-.843-.515-1.124-.25-.262-.644-.572-1.044-.887l-.93-.732c-.68-.536-1.25-.985-1.724-1.26-.477-.277-1.063-.502-1.671-.233-.624.277-.828.875-.91 1.413-.076.492-.081 1.14-.082 1.904H4.662a.917.917 0 0 0 0 1.833h8.48c0 .765.005 1.415.08 1.907.083.538.287 1.136.911 1.413.608.269 1.194.044 1.671-.233.474-.275 1.044-.724 1.725-1.26l.93-.732c.4-.315.793-.625 1.043-.887.268-.281.514-.641.514-1.122" clip-rule="evenodd"/></svg>