<svg width="19" height="18" viewBox="0 0 19 18" fill="none" xmlns="http://www.w3.org/2000/svg">
<path fill-rule="evenodd" clip-rule="evenodd" d="M9.5 3.15049C6.26913 3.15049 3.65 5.76962 3.65 9.00049C3.65 12.2313 6.26913 14.8505 9.5 14.8505C10.8181 14.8505 12.0324 14.4155 13.0102 13.6809C13.333 13.4382 13.7914 13.5033 14.034 13.8262C14.2766 14.1492 14.2115 14.6076 13.8886 14.8501C12.6663 15.7685 11.1456 16.313 9.5 16.313C5.46142 16.313 2.1875 13.0391 2.1875 9.00049C2.1875 4.9619 5.46142 1.68799 9.5 1.68799C13.5386 1.68799 16.8125 4.9619 16.8125 9.00049V9.65884C16.8125 11.1531 15.6012 12.3645 14.1069 12.3645C13.2296 12.3645 12.4498 11.9469 11.9555 11.2998C11.3417 11.955 10.4687 12.3645 9.5 12.3645C7.64225 12.3645 6.13625 10.8585 6.13625 9.00071C6.13625 7.14298 7.64225 5.63698 9.5 5.63698C10.2109 5.63698 10.8703 5.85752 11.4136 6.23393C11.4766 5.89421 11.7745 5.63698 12.1325 5.63698C12.5364 5.63698 12.8638 5.96437 12.8638 6.36823V9.65884C12.8638 10.3454 13.4203 10.902 14.1069 10.902C14.7934 10.902 15.35 10.3454 15.35 9.65884V9.00049C15.35 5.76962 12.7309 3.15049 9.5 3.15049ZM11.4012 9.00071C11.4012 7.95071 10.55 7.09948 9.5 7.09948C8.45 7.09948 7.59875 7.95071 7.59875 9.00071C7.59875 10.0508 8.45 10.902 9.5 10.902C10.55 10.902 11.4012 10.0508 11.4012 9.00071Z" fill="white"/>
</svg>
