<svg xmlns="http://www.w3.org/2000/svg" width="21" height="20" fill="none" viewBox="0 0 21 20"><path fill="#fff" fill-opacity=".66" d="M11.07 3.12a5 5 0 0 0-7.216 6.918l.158.165 7.333 7.332.03.025a3.103 3.103 0 0 0 4.575-4.145.6.6 0 0 0-.071-.109l-.045-.05-.072-.072-.118-.124-.002.003L9.445 6.85a.625.625 0 0 0-.813-.062l-.07.06a.625.625 0 0 0-.062.814l.06.07 6.33 6.345a1.858 1.858 0 0 1-2.646 2.588l-7.36-7.359a3.752 3.752 0 0 1 5.164-5.436l.14.133.01.012 7.948 7.946a.625.625 0 0 0 .944-.813l-.06-.07-7.958-7.96z"/></svg>