<svg xmlns="http://www.w3.org/2000/svg" width="21" height="20" fill="none" viewBox="0 0 21 20"><g clip-path="url(#a)"><path stroke="#fff" stroke-linecap="round" stroke-linejoin="round" stroke-width="1.5" d="M4.213 14.985V8.09c0-3.028 0-4.542.977-5.482.976-.94 2.547-.94 5.69-.94s4.714 0 5.69.94c.977.94.977 2.454.977 5.482v6.895c0 1.921 0 2.882-.644 3.226-1.247.666-3.587-1.556-4.698-2.225-.644-.388-.966-.582-1.325-.582s-.68.194-1.325.582c-1.11.669-3.45 2.89-4.698 2.225-.644-.344-.644-1.305-.644-3.226"/></g><defs><clipPath id="a"><path fill="#fff" d="M.88 0h20v20h-20z"/></clipPath></defs></svg>