<svg xmlns="http://www.w3.org/2000/svg" width="21" height="20" fill="none" viewBox="0 0 21 20"><path fill="#fff" d="M10.926 1.042c1.532 0 2.744 0 3.692.123.973.126 1.762.391 2.386.993.628.604.907 1.374 1.04 2.322.128.918.128 2.089.128 3.562v6.997c0 .914 0 1.674-.088 2.245-.091.591-.303 1.166-.887 1.478-.52.278-1.094.222-1.58.074-.491-.149-.99-.42-1.448-.709-.462-.291-.96-.658-1.354-.95a14 14 0 0 0-.932-.656 9 9 0 0 0-.714-.406c-.157-.074-.234-.086-.289-.086s-.132.012-.289.086c-.17.08-.38.206-.714.406-.236.143-.546.372-.932.657-.393.29-.892.658-1.354.95-.457.288-.957.56-1.448.708-.486.148-1.059.204-1.58-.074-.584-.312-.796-.887-.887-1.478-.088-.57-.088-1.33-.088-2.245V8.042c0-1.473 0-2.644.128-3.562.133-.948.412-1.718 1.04-2.322.624-.602 1.413-.867 2.386-.993.948-.123 2.16-.123 3.693-.123z"/></svg>