<svg xmlns="http://www.w3.org/2000/svg" width="19" height="18" fill="none" viewBox="0 0 19 18"><g clip-path="url(#a)"><path fill="#fff" fill-rule="evenodd" d="M9.475.938h.047c.453 0 .828 0 1.138.026.325.028.618.087.9.227.505.25.823.646 1.047 1.044.173.308.308.654.422.948l.077.198.111.276c.054.136.082.204.138.243.056.038.13.04.278.041.69.01 1.213.048 1.672.24.71.299 1.287.85 1.624 1.546.15.311.227.645.277 1.033.05.378.078.845.114 1.429l.12 1.946c.09 1.457.161 2.61.095 3.513-.068.927-.286 1.684-.847 2.289-.562.606-1.297.875-2.21 1.002-.887.124-2.027.124-3.467.124H7.986c-1.44 0-2.58 0-3.467-.124-.913-.127-1.648-.396-2.21-1.002-.561-.605-.779-1.362-.847-2.29-.066-.903.005-2.055.095-3.512l.12-1.947c.036-.583.064-1.05.114-1.428.05-.388.127-.722.277-1.033a3.17 3.17 0 0 1 1.624-1.545c.459-.193.981-.232 1.672-.241.148-.002.222-.003.278-.041.057-.04.084-.107.138-.243l.11-.276.078-.198a7.5 7.5 0 0 1 .422-.948c.224-.398.543-.794 1.046-1.044.283-.14.577-.199.901-.227.31-.026.685-.026 1.138-.026M8.75 4.5c0-.414.334-.75.747-.75.41 0 .753.336.753.75 0 .415-.344.75-.753.75a.75.75 0 0 1-.747-.75m.75 3a3 3 0 1 0 0 6 3 3 0 0 0 0-6" clip-rule="evenodd"/></g><defs><clipPath id="a"><path fill="#fff" d="M.5 0h18v18H.5z"/></clipPath></defs></svg>