<svg xmlns="http://www.w3.org/2000/svg" width="23" height="22" fill="none" viewBox="0 0 23 22"><mask id="b" fill="#fff"><path fill-rule="evenodd" d="M11.88 20.855c-5.443 0-9.855-4.412-9.855-9.855 0-5.442 4.412-9.854 9.855-9.854 5.442 0 9.854 4.412 9.854 9.854 0 5.443-4.412 9.855-9.854 9.855m3.398-11.956a.917.917 0 0 0-1.297-1.297L11.88 9.704 9.778 7.603A.917.917 0 1 0 8.48 8.899L10.583 11 8.48 13.102a.917.917 0 1 0 1.297 1.296l2.101-2.101 2.102 2.102a.917.917 0 0 0 1.297-1.297L13.176 11z" clip-rule="evenodd"/></mask><path fill="#fff" fill-opacity=".2" fill-rule="evenodd" stroke="url(#a)" stroke-width="2" d="M11.88 20.855c-5.443 0-9.855-4.412-9.855-9.855 0-5.442 4.412-9.854 9.855-9.854 5.442 0 9.854 4.412 9.854 9.854 0 5.443-4.412 9.855-9.854 9.855Zm3.398-11.956a.917.917 0 0 0-1.297-1.297L11.88 9.704 9.778 7.603A.917.917 0 1 0 8.48 8.899L10.583 11 8.48 13.102a.917.917 0 1 0 1.297 1.296l2.101-2.101 2.102 2.102a.917.917 0 0 0 1.297-1.297L13.176 11z" clip-rule="evenodd" mask="url(#b)"/><path fill="#fff" d="M13.982 7.603a.916.916 0 0 1 1.296 1.295l-2.102 2.103 2.102 2.101a.916.916 0 1 1-1.296 1.296l-2.103-2.101-2.101 2.101a.916.916 0 1 1-1.296-1.296l2.101-2.101-2.101-2.102a.917.917 0 0 1 1.296-1.296l2.101 2.101z"/><defs><linearGradient id="a" x1="3.799" x2="18.975" y1="3.117" y2="19.081" gradientUnits="userSpaceOnUse"><stop stop-color="#fff" stop-opacity=".3"/><stop offset=".37" stop-color="#fff" stop-opacity=".15"/><stop offset=".721" stop-color="#fff" stop-opacity=".1"/><stop offset="1" stop-color="#fff" stop-opacity=".3"/></linearGradient></defs></svg>