<svg width="23" height="22" viewBox="0 0 23 22" fill="none" xmlns="http://www.w3.org/2000/svg">
<path d="M9.34961 1.5H13.6504C15.6983 1.5 17.1586 1.50176 18.2676 1.65137C19.3545 1.79804 19.9917 2.07423 20.459 2.54297C20.9265 3.01226 21.2032 3.65276 21.3496 4.74512C21.4988 5.859 21.5 7.32621 21.5 9.38184V9.9209C21.5 11.9762 21.4987 13.4428 21.3496 14.5566C21.2033 15.6492 20.9266 16.2894 20.459 16.7588C19.9917 17.2277 19.3549 17.5047 18.2676 17.6514C17.1586 17.801 15.6983 17.8027 13.6504 17.8027H13.6328C13.0009 17.8169 12.4663 17.8663 11.9287 17.9893H11.9277C10.7423 18.2631 9.64568 18.8145 8.66309 19.3057L8.10645 19.583C7.24439 20.0049 6.67162 20.282 6.24902 20.4189C6.04427 20.4853 5.92623 20.5009 5.86328 20.5C5.84551 20.4997 5.83497 20.4971 5.83008 20.4961C5.77858 20.4544 5.72406 20.3819 5.69629 20.2061C5.6644 20.0041 5.6791 19.7259 5.74316 19.3672C5.76874 19.224 5.80063 19.0512 5.80957 18.9033C5.81754 18.7714 5.81638 18.5459 5.69629 18.3184L5.6377 18.2207L5.56641 18.1309C5.39548 17.9382 5.18459 17.8582 5.05859 17.8193C4.91704 17.7757 4.74301 17.7453 4.59961 17.7188C3.64836 17.543 2.98622 17.2056 2.54102 16.7588C2.07344 16.2894 1.79674 15.6491 1.65039 14.5566C1.50125 13.4428 1.5 11.9762 1.5 9.9209V9.38184C1.5 7.32621 1.50118 5.859 1.65039 4.74512C1.79676 3.65277 2.07344 3.01226 2.54102 2.54297C3.00824 2.07422 3.64542 1.79805 4.73242 1.65137C5.84144 1.50176 7.30173 1.5 9.34961 1.5Z" stroke="white" stroke-width="1.5"/>
</svg>
