<svg width="25" height="24" viewBox="0 0 25 24" fill="none" xmlns="http://www.w3.org/2000/svg">
<path d="M10.35 1.75H14.65C18.7041 1.75 20.7311 1.75 21.9906 3.01407C23.25 4.27813 23.25 6.31261 23.25 10.3816V10.9211C23.25 14.99 23.25 17.0245 21.9906 18.2886C20.7311 19.5526 18.7041 19.5526 14.65 19.5526C14.0475 19.5661 13.5676 19.6121 13.0962 19.7199C12.0124 19.9703 10.9961 20.4783 9.99881 20.9768C9.81077 21.0708 9.62311 21.1646 9.43611 21.2562C7.75633 22.0782 6.91645 22.4893 6.38937 22.1045C5.88644 21.7285 5.86431 21.0194 6.0044 20.2351C6.06226 19.9112 6.0912 19.7492 6.02074 19.6474C5.95029 19.5457 5.78808 19.5158 5.46365 19.4558C4.40736 19.2607 3.59038 18.8716 3.00944 18.2886C1.75 17.0245 1.75 14.99 1.75 10.9211V10.3816C1.75 6.31261 1.75 4.27813 3.00944 3.01407C4.26888 1.75 6.29592 1.75 10.35 1.75Z" fill="white"/>
</svg>
