<svg width="21" height="21" viewBox="0 0 21 21" fill="none" xmlns="http://www.w3.org/2000/svg">
<path d="M10.2263 3.49457C8.27506 1.54158 5.10923 1.54158 3.15664 3.49421C1.25406 5.39676 1.20531 8.4511 3.01031 10.4127L3.16706 10.5772L10.5005 17.909L10.5309 17.9342C11.7486 19.0316 13.627 18.9942 14.7998 17.8214C15.8989 16.7222 16.0007 15.0033 15.1051 13.7894C15.0856 13.7517 15.0621 13.7152 15.0344 13.6809L14.9898 13.6312L14.9173 13.5581L14.7998 13.4348L14.7973 13.4372L8.60089 7.22532C8.37931 7.00313 8.03206 6.9825 7.78714 7.16372L7.71698 7.22414C7.49481 7.44573 7.47414 7.79292 7.65539 8.03784L7.71581 8.10802L14.0447 14.4522C14.6427 15.1819 14.6011 16.2605 13.92 16.9417C13.2291 17.6325 12.1294 17.6654 11.3996 17.0403L4.03898 9.68167C2.57606 8.21692 2.57606 5.84256 4.04056 4.37809C5.45923 2.95939 7.73181 2.91506 9.20389 4.24508L9.34381 4.37809L9.35431 4.39002L17.3012 12.3369C17.5453 12.581 17.941 12.581 18.1851 12.3369C18.407 12.1151 18.4272 11.7678 18.2456 11.5232L18.1851 11.4531L10.2277 3.49421L10.2263 3.49457Z" fill="white" fill-opacity="0.66"/>
</svg>
