<svg width="29" height="28" viewBox="0 0 29 28" fill="none" xmlns="http://www.w3.org/2000/svg">
<g clip-path="url(#clip0_553_1612)">
<path d="M4.65674 12.0323H5.3124V15.9687H4.65674V12.0323ZM23.6874 12.0323H24.3442V15.9687H23.6874V12.0323ZM5.3124 10.063H5.96924V12.0323H5.3124V10.063ZM5.3124 17.938H5.96924V15.9698L5.3124 15.9687V17.938ZM23.6874 17.938H23.0317V15.9698L23.6874 15.9687V17.938ZM23.6874 10.063H23.0317V12.0323H23.6874V10.063ZM5.96924 8.09482H6.6249V10.063H5.96924V8.09482ZM23.0317 19.9073H22.3749V17.938H23.0317V19.9073ZM5.96924 19.9073H6.6249V17.938H5.96924V19.9073ZM23.0317 8.09482H22.3749V10.063H23.0317V8.09482ZM22.3749 21.2198H21.7181V19.9073H22.3749V21.2198ZM6.6249 6.78232H7.28057V8.09482H6.6249V6.78232ZM6.6249 21.2198H7.28057V19.9073H6.6249V21.2198ZM21.7181 21.8755H21.0624V21.2198H21.7181V21.8755ZM22.3749 6.78232H21.7181V8.09482H22.3749V6.78232ZM7.28057 6.12549H7.9374V6.78232H7.28057V6.12549ZM21.0624 22.5323H19.0942V21.8755H21.0624V22.5323ZM7.28057 21.8755H7.9374V21.2198H7.28057V21.8755ZM21.7181 6.12549H21.0624V6.78232H21.7181V6.12549ZM19.0931 23.188H17.7817V22.5323H19.0942L19.0931 23.188ZM7.93857 5.46982H9.90791V6.12549H7.9374L7.93857 5.46982ZM7.93857 22.5323H9.90791V21.8755H7.9374L7.93857 22.5323ZM17.7829 23.8448H15.8136V23.188H17.7829V23.8448ZM21.0636 5.46982H19.0954V6.12549H21.0624L21.0636 5.46982ZM9.90791 4.81299H11.2192V5.46982H9.90674L9.90791 4.81299ZM16.4669 24.5005H14.4999V23.8448H16.4692L16.4669 24.5005ZM9.90557 23.188H11.2169V22.5323H9.90674L9.90557 23.188ZM19.0931 4.81299H17.7794V5.46982H19.0931V4.81299ZM11.2181 4.15732H13.1862V4.81299H11.2192L11.2181 4.15732ZM11.2181 23.8448H13.1862V23.188H11.2192L11.2181 23.8448ZM17.7794 4.15732H15.8112V4.81299H17.7806L17.7794 4.15732ZM12.5317 3.50049H14.4999V4.15732H12.5306L12.5317 3.50049ZM12.5317 24.5005H14.4999V23.8448H12.5306L12.5317 24.5005ZM16.4704 3.50049H14.4999V4.15732H16.4692L16.4704 3.50049Z" fill="#641500"/>
<path d="M5.3125 12.0322H5.96933V15.3129H5.3125V12.0322ZM5.96933 10.0629H6.625V12.0322H5.96933V10.0629ZM23.0318 10.0629H22.3762V12.0322H23.0318V10.0629ZM6.625 8.09473H7.28183V10.0629H6.625V8.09473ZM22.375 8.09473H21.7193V10.0629H22.3762L22.375 8.09473ZM7.28183 6.78223H7.93867V8.09473H7.28183V6.78223ZM21.7193 6.78223H21.0637V8.75039H21.7193V6.78223ZM7.93867 6.12539H9.90683V6.78223H7.93867V6.12539ZM21.0637 6.12539H19.0943V6.78223H21.0637V6.12539ZM9.90683 5.46973H11.2193V6.12539H9.90683V5.46973ZM19.0943 5.46973H17.7818V6.12539H19.0943V5.46973ZM11.2193 4.81289H13.1887V5.46973H11.2193V4.81289ZM17.7818 4.81289H15.8137V5.46973H17.7818V4.81289ZM13.1887 4.15723H14.5V4.81289H13.1875L13.1887 4.15723ZM15.8137 4.15723H14.5V4.81289H15.8125L15.8137 4.15723ZM23.6887 12.0322H23.0318V15.3129H23.6887V12.0322Z" fill="#B02B08"/>
<path d="M5.3125 15.313H5.96933V15.9698H5.3125V15.313ZM23.6875 15.313H23.0318V15.9698H23.6887L23.6875 15.313ZM5.9705 16.6255H6.62617V17.938H5.9705V16.6255ZM23.033 16.6255H22.3773V17.938H23.033V16.6255ZM6.62617 17.938H7.28183V19.9073H6.625L6.62617 17.938ZM22.375 17.938H21.7193V19.9073H22.3762L22.375 17.938Z" fill="#F97400"/>
<path d="M7.28174 19.2505H7.9374V21.2198H7.28174V19.2505ZM21.7181 19.2505H21.0624V21.2198H21.7181V19.2505ZM7.9374 19.9073H8.59424V21.8755H7.9374V19.9073ZM21.0624 19.9073H20.4067V21.8755H21.0624V19.9073ZM8.59424 20.563H9.2499V21.8755H8.59424V20.563ZM20.4067 20.563H19.7499V21.8755H20.4067V20.563ZM9.90674 21.2198H10.5624V22.5323H9.90674V21.2198ZM19.0942 21.2198H18.4374V22.5323H19.0942V21.2198Z" fill="#BD480A"/>
<path d="M10.5625 21.2198H11.2193V22.5312H10.5625V21.2198ZM18.4375 21.2198H17.7818V22.5312H18.4375V21.2198ZM11.2193 21.8755H13.1875V23.188H11.2193V21.8755ZM17.7807 21.8755H15.8125V23.188H17.7818L17.7807 21.8755ZM13.1875 22.5312H15.8125V23.8437H13.1875V22.5312ZM9.25 20.563H9.90683V21.8755H9.25V20.563ZM19.75 20.563H19.0943V21.8755H19.75V20.563Z" fill="#F97400"/>
<path d="M5.96924 15.313H6.6249V16.6255H5.96924V15.313ZM23.0317 15.313H22.3761V16.6255H23.0317V15.313Z" fill="#BD480A"/>
<path d="M5.96924 12.0322H7.93857V13.3436H5.96924V12.0322Z" fill="#FFF869"/>
<path d="M23.0317 12.0323H21.0636V13.3437H23.0317V12.0323ZM5.96924 13.3437H7.93857V15.313H5.96924V13.3437ZM9.2499 11.3755H10.5624V15.9698H9.2499V11.3755ZM18.4386 11.3755H20.4067V15.9698H18.4386V11.3755ZM9.90674 15.9698H10.5624V17.2812H9.90674V15.9698Z" fill="#FEB032"/>
<path d="M9.90674 12.0323H10.5624V10.7198H9.90674V12.0323ZM10.5624 16.6255H11.8761V17.938H10.5624V16.6255ZM10.5624 10.7198H11.2192V10.063H10.5624V10.7198ZM11.2192 17.938H12.5317V18.5948H11.2192V17.938ZM10.5624 10.063H11.8761V9.40732H10.5624V10.063ZM12.5317 17.938H17.1249V19.2505H12.5317V17.938ZM11.8761 10.063H17.1261V8.75049H11.8761V10.063ZM17.1261 17.938H18.4386V18.5948H17.1249L17.1261 17.938ZM17.1261 10.063H18.4386V8.75049H17.1249L17.1261 10.063ZM17.1261 17.2823H19.0942V17.938H17.1249L17.1261 17.2823Z" fill="#FEB032"/>
<path d="M17.7817 10.7199H19.0942V9.40625H17.7817V10.7199ZM17.7817 15.9699H19.7499V17.2812H17.7817V15.9699Z" fill="#FEB032"/>
<path d="M18.4375 11.3754H19.75V10.0629H18.4375V11.3754ZM13.1875 19.2504H15.8125V19.9072H13.1875V19.2504ZM13.1875 8.75039H16.4693V8.09473H13.1875V8.75039ZM6.625 15.3129H7.9375V17.9379H6.625V15.3129Z" fill="#FEB032"/>
<path d="M7.28174 16.6255H8.59424V19.2505H7.28174V16.6255Z" fill="#FEB032"/>
<path d="M7.9375 17.938H9.25V19.9062H7.9375V17.938Z" fill="#FEB032"/>
<path d="M8.59418 18.5947H9.90668V20.5629H8.59302L8.59418 18.5947ZM9.90668 19.2504H11.218V21.2197H9.90668V19.2504Z" fill="#FEB032"/>
<path d="M9.25 18.5947H10.5625V20.5629H9.25V18.5947ZM11.2193 19.9061H13.1875V21.8754H11.2193V19.9061ZM13.1875 20.5629H15.8125V22.5322H13.1875V20.5629ZM23.0318 13.3447H21.0625V15.3129H23.0318V13.3447ZM22.375 15.3129H21.0625V17.9379H22.375V15.3129Z" fill="#FEB032"/>
<path d="M21.718 16.6255H20.4055V19.2505H21.718V16.6255Z" fill="#FEB032"/>
<path d="M21.0637 17.938H19.75V19.9062H21.0637V17.938Z" fill="#FEB032"/>
<path d="M20.4067 18.5947H19.0942V20.5629H20.4067V18.5947ZM19.0942 19.2504H17.7817V21.2197H19.0942V19.2504Z" fill="#FEB032"/>
<path d="M19.75 18.5947H18.4375V20.5629H19.75V18.5947ZM17.7818 19.9061H15.8125V21.8754H17.7818V19.9061Z" fill="#FEB032"/>
<path d="M6.625 10.063H7.9375V12.0323H6.625V10.063Z" fill="#FFF869"/>
<path d="M22.3749 10.063H21.0624V12.0323H22.3749V10.063ZM21.0624 10.063H20.4067V10.7198H21.0624V10.063Z" fill="#FEB032"/>
<path d="M7.28174 9.40723H8.59424V10.0629H7.28174V9.40723Z" fill="#FFF869"/>
<path d="M21.7191 8.75049H19.751V10.063H21.7191V8.75049Z" fill="#FEB032"/>
<path d="M7.9375 8.75039H9.25V9.40606H7.9375V8.75039ZM8.59433 7.43789H9.90683V8.75039H8.59433V7.43789ZM9.90683 6.78223H11.2193V8.09356H9.90683V6.78223ZM11.2193 6.12539H13.1887V7.43789H11.2193V6.12539ZM13.1887 5.46973H15.8137V6.78223H13.1887V5.46973ZM15.8137 5.46973H17.7818V7.43789H15.8137V5.46973ZM17.7818 6.12539H19.0943V7.43789H17.7818V6.12539Z" fill="#FFF869"/>
<path d="M18.4375 6.78223H20.4068V8.09473H18.4375V6.78223Z" fill="#FFF869"/>
<path d="M19.0941 6.78232H21.0623V8.75049H19.0941V6.78232ZM14.501 4.81299H15.8123V5.46982H14.501V4.81299Z" fill="#FFF869"/>
<path d="M7.28174 8.09365H7.9374V9.40616H7.28174V8.09365ZM7.9374 6.78115H8.59424V8.75049H7.9374V6.78115ZM8.59424 6.78115H9.90674V7.43799H8.59424V6.78115ZM9.90674 6.12549H11.2181V6.78232H9.90674V6.12549ZM11.2181 5.46982H13.1874V6.12549H11.2181V5.46982ZM13.1874 4.81299H14.4999V5.46982H13.1874V4.81299Z" fill="#FFFACE"/>
<path d="M7.9375 10.063H8.59433V16.6255H7.9375V10.063Z" fill="#C61600"/>
<path d="M8.59424 10.7198H9.2499V16.6255H8.59424V10.7198ZM9.2499 8.75049H9.90674V11.3755H9.2499V8.75049ZM9.90674 8.75049H10.5624V10.7198H9.90674V8.75049ZM10.5624 8.09482H11.2181V9.40732H10.5624V8.09482ZM11.2181 8.09482H11.8749V9.40616L11.2181 9.40732V8.09482ZM11.8749 8.09482H13.1874V8.75049H11.8749V8.09482ZM13.1874 7.43799H15.8124V8.09482H13.1874V7.43799ZM16.4692 8.09482H18.4374V8.75049H16.4692V8.09482ZM18.4374 8.75049H19.0942V9.40732H18.4374V8.75049ZM19.0942 9.40732H19.7499V10.063H19.0942V9.40732ZM19.7499 10.7198H20.4067V11.3755H19.7499V10.7198ZM9.2499 15.9698H9.90674V17.2812H9.2499V15.9698ZM9.90674 17.2812H10.5624V17.938H9.90674V17.2812ZM10.5624 17.938H11.2181V18.5948H10.5624V17.938ZM11.8749 18.5948H12.5306V19.2505H11.8749V18.5948ZM11.2181 18.5948H11.8749V19.2505H11.2181V18.5948Z" fill="#F97400"/>
<path d="M8.59424 9.40723H9.2499V10.7186H8.59424V9.40723ZM19.7499 9.40723H20.4067V10.7186H19.7499V9.40723ZM20.4067 10.7186H21.0624V12.0322H20.4067V10.7186ZM9.2499 8.75039H9.90674V9.40723H9.2499V8.75039ZM9.90674 8.09473H10.5624V8.75039H9.90674V8.09473ZM18.4374 8.09473H19.0942V8.75039H18.4374V8.09473ZM19.0942 8.75039H19.7499V9.40723H19.0942V8.75039ZM11.2192 7.43789H13.1874V8.09473H11.2181L11.2192 7.43789ZM15.8124 7.43789H18.4374V8.09473H15.8124V7.43789ZM13.1874 6.78223H15.8124V7.43789H13.1874V6.78223ZM9.2499 17.2822H9.90674V18.5947H9.2499V17.2822ZM8.59424 15.9686H9.2499V17.9379H8.59424V15.9686ZM9.90674 17.9379H10.5624V18.5947H9.90674V17.9379ZM10.5624 18.5947H11.2181V19.2504H10.5624V18.5947Z" fill="#C61600"/>
<path d="M11.2192 19.2504H13.1874V19.9061H11.2192V19.2504ZM15.8124 19.2504H17.7817V19.9061H15.8124V19.2504ZM17.1249 18.5947H18.4374V19.2504H17.1249V18.5947ZM18.4374 17.9379H19.0942V18.5947H18.4374V17.9379ZM19.0942 17.2811H19.7499V18.5947H19.0942V17.2811ZM19.7499 15.9686H20.4067V17.9379H19.7499V15.9686ZM20.4067 12.0322H21.0624V16.6254H20.4067V12.0322ZM13.1874 19.9061H15.8124V20.5629H13.1874V19.9061Z" fill="#FFF869"/>
<path d="M11.875 17.2822H17.125V17.9379H11.875V17.2822Z" fill="#620719"/>
<path d="M11.8749 16.6254H17.1249V17.2811H11.8749V16.6254ZM11.2192 10.7197H17.7806V11.3754H11.2204L11.2192 10.7197Z" fill="#F97400"/>
<path d="M11.2192 11.3755H17.7806V12.0323H11.2204L11.2192 11.3755Z" fill="#D93900"/>
<path d="M15.8125 12.0322H17.125V13.3436H15.8125V12.0322Z" fill="#FFF869"/>
<path d="M14.5 12.0322H15.8125V13.3436H14.5012L14.5 12.0322Z" fill="#F6D45A"/>
<path d="M11.2192 10.063H17.7806V10.7198H11.2204L11.2192 10.063ZM11.2192 15.313H11.8749V16.6255H11.2192V15.313ZM17.1249 15.313H17.7817V16.6255H17.1249V15.313Z" fill="#F97400"/>
<path d="M17.1249 13.3447H17.7817V15.3129H17.1249V13.3447ZM11.2192 13.3447H11.8749V15.3129H11.2192V13.3447ZM17.1249 15.3129V16.6254H11.8749V15.3129H17.1249ZM12.5306 13.3447V14.0004H11.8749V13.3447H12.5306Z" fill="#C61600"/>
<path d="M16.4691 12.688V14.0005H15.8135V12.688H16.4691ZM13.8441 14.0005V14.6573H13.1885V14.0005H13.8441ZM15.8135 14.0005V14.6573H15.1566V14.0005H15.8135Z" fill="#00070A"/>
<path d="M17.125 14.0004V15.3129H15.8125V14.0004H17.125ZM13.1875 14.0004V15.3129H11.875V14.0004H13.1875ZM13.8443 12.0322V13.3436H13.1875V12.0322H13.8443ZM15.8125 14.6572V15.3129H13.1875V14.6561L15.8125 14.6572Z" fill="white"/>
<path d="M15.1556 14.0005V15.313H13.8442V14.0005H15.1556Z" fill="#F5CB9C"/>
<path d="M15.8135 13.3447V14.0004H13.1885V13.3447H15.8135ZM17.1248 13.3447V14.0004H16.4691V13.3447H17.1248Z" fill="#C61600"/>
<path d="M11.2193 16.6254H11.8762V17.2811H11.2193V16.6254ZM17.125 16.6254H17.7818V17.2811H17.125V16.6254ZM17.7818 12.0322H18.4387V16.6254H17.7818V12.0322ZM10.5625 12.0322H11.2193V16.6254H10.5625V12.0322Z" fill="#620719"/>
<path d="M10.5625 10.7198H11.2193V12.0312H10.5625V10.7198ZM12.5318 10.063V10.7198H11.2193V10.063H12.5318ZM17.7818 10.063V10.7198H17.125V10.063H17.7818ZM17.7818 10.7198H18.4387V12.0312H17.7818V10.7198ZM17.125 12.0312H17.7818V13.3448H17.125V12.0312ZM11.2193 12.0312H11.8762V13.3448H11.2193V12.0312Z" fill="#9E100A"/>
<path d="M11.875 12.0322H12.5318V13.3436H11.875V12.0322Z" fill="#EEB04B"/>
<path d="M13.8442 12.0322H14.5011V13.3436H13.8442V12.0322ZM12.5317 12.0322H13.1886V13.3436H12.5317V12.0322Z" fill="#FFF869"/>
<path d="M13.1886 12.688V14.0005H12.5317V12.688H13.1886Z" fill="#00070A"/>
</g>
<defs>
<clipPath id="clip0_553_1612">
<rect width="28" height="28" fill="white" transform="translate(0.5 0.000488281)"/>
</clipPath>
</defs>
</svg>
