<svg xmlns="http://www.w3.org/2000/svg" width="29" height="28" fill="none" viewBox="0 0 29 28"><g clip-path="url(#a)"><path fill="#641500" d="M4.657 12.032h.655v3.937h-.655zm19.03 0h.657v3.937h-.657zM5.312 10.063h.657v1.97h-.657zm0 7.875h.657V15.97l-.657-.001zm18.375 0h-.655V15.97l.655-.001zm0-7.875h-.655v1.97h.655zM5.97 8.095h.656v1.968H5.97zm17.063 11.812h-.657v-1.969h.657zm-17.063 0h.656v-1.969H5.97zM23.032 8.095h-.657v1.968h.657zm-.657 13.125h-.657v-1.313h.657zM6.625 6.782h.656v1.313h-.656zm0 14.438h.656v-1.313h-.656zm15.093.656h-.656v-.656h.656zm.657-15.094h-.657v1.313h.657zM7.28 6.125h.656v.657H7.28zm13.781 16.407h-1.968v-.657h1.968zM7.28 21.875h.656v-.655H7.28zm14.437-15.75h-.656v.657h.656zm-2.625 17.063h-1.311v-.656h1.312zM7.94 5.47h1.969v.655h-1.97zm0 17.062h1.969v-.657h-1.97zm9.844 1.313h-1.97v-.657h1.97zm3.28-18.375h-1.968v.655h1.967zM9.909 4.813h1.311v.657H9.907zm6.559 19.688H14.5v-.656h1.97zm-6.561-1.313h1.31v-.656h-1.31zm9.187-18.375H17.78v.657h1.314zm-7.875-.656h1.968v.656H11.22zm0 19.688h1.968v-.657H11.22zM17.78 4.157h-1.968v.656h1.97zM12.532 3.5H14.5v.657h-1.97zm0 21H14.5v-.655h-1.97zm3.938-21H14.5v.657h1.97z"/><path fill="#b02b08" d="M5.313 12.032h.656v3.28h-.657zm.656-1.97h.656v1.97h-.656zm17.063 0h-.656v1.97h.656zM6.625 8.096h.657v1.968h-.657zm15.75 0h-.656v1.968h.657zM7.282 6.782h.657v1.313h-.657zm14.437 0h-.655V8.75h.655zM7.94 6.125h1.968v.657H7.939zm13.125 0h-1.97v.657h1.97zM9.907 5.47h1.312v.655H9.907zm9.187 0h-1.312v.655h1.312zm-7.875-.657h1.97v.657h-1.97zm6.563 0h-1.968v.657h1.968zm-4.593-.656H14.5v.656h-1.312zm2.625 0H14.5v.656h1.313zm7.875 7.875h-.657v3.28h.657z"/><path fill="#f97400" d="M5.313 15.313h.656v.657h-.657zm18.375 0h-.656v.657h.657zM5.97 16.625h.655v1.313H5.97zm17.062 0h-.656v1.313h.656zM6.626 17.938h.656v1.97h-.657zm15.749 0h-.656v1.97h.657z"/><path fill="#bd480a" d="M7.282 19.25h.655v1.97h-.655zm14.436 0h-.656v1.97h.656zm-13.78.657h.656v1.968h-.657zm13.124 0h-.655v1.968h.655zm-12.468.656h.656v1.313h-.656zm11.813 0h-.657v1.313h.657zm-10.5.657h.655v1.312h-.655zm9.187 0h-.657v1.312h.657z"/><path fill="#f97400" d="M10.563 21.22h.656v1.311h-.656zm7.874 0h-.655v1.311h.656zm-7.218.656h1.969v1.312h-1.969zm6.562 0h-1.968v1.312h1.969zm-4.593.655h2.624v1.313h-2.624zM9.25 20.563h.657v1.313H9.25zm10.5 0h-.656v1.313h.656z"/><path fill="#bd480a" d="M5.97 15.313h.655v1.312h-.656zm17.062 0h-.656v1.312h.656z"/><path fill="#fff869" d="M5.97 12.032h1.969v1.312h-1.97z"/><path fill="#feb032" d="M23.032 12.032h-1.968v1.312h1.968zM5.969 13.344h1.97v1.969h-1.97zm3.28-1.968h1.313v4.594H9.25zm9.19 0h1.968v4.594h-1.968zM9.907 15.97h.655v1.311h-.655z"/><path fill="#feb032" d="M9.907 12.032h.655V10.72h-.655zm.655 4.593h1.314v1.313h-1.314zm0-5.905h.657v-.657h-.657zm.657 7.218h1.313v.657h-1.313zm-.657-7.875h1.314v-.656h-1.314zm1.97 7.875h4.593v1.313h-4.593zm-.656-7.875h5.25V8.75h-5.25zm5.25 7.875h1.313v.657h-1.314zm0-7.875h1.313V8.75h-1.314zm0 7.22h1.968v.655h-1.97z"/><path fill="#feb032" d="M17.782 10.72h1.312V9.406h-1.312zm0 5.25h1.968v1.311h-1.968z"/><path fill="#feb032" d="M18.438 11.375h1.312v-1.312h-1.312zm-5.25 7.875h2.624v.657h-2.624zm0-10.5h3.281v-.655h-3.282zm-6.563 6.563h1.313v2.625H6.625z"/><path fill="#feb032" d="M7.282 16.626h1.312v2.624H7.282z"/><path fill="#feb032" d="M7.938 17.938H9.25v1.968H7.938z"/><path fill="#feb032" d="M8.594 18.595h1.313v1.968H8.593zm1.313.655h1.311v1.97H9.907z"/><path fill="#feb032" d="M9.25 18.595h1.313v1.968H9.25zm1.97 1.311h1.967v1.97H11.22zm1.967.657h2.626v1.97h-2.626zm9.845-7.218h-1.97v1.968h1.97zm-.657 1.968h-1.312v2.625h1.312z"/><path fill="#feb032" d="M21.718 16.626h-1.312v2.624h1.312z"/><path fill="#feb032" d="M21.064 17.938H19.75v1.968h1.314z"/><path fill="#feb032" d="M20.407 18.595h-1.313v1.968h1.313zm-1.313.655h-1.312v1.97h1.312z"/><path fill="#feb032" d="M19.75 18.595h-1.312v1.968h1.312zm-1.968 1.311h-1.97v1.97h1.97z"/><path fill="#fff869" d="M6.625 10.063h1.313v1.97H6.625z"/><path fill="#feb032" d="M22.375 10.063h-1.313v1.97h1.313zm-1.313 0h-.655v.657h.655z"/><path fill="#fff869" d="M7.282 9.407h1.312v.656H7.282z"/><path fill="#feb032" d="M21.72 8.75h-1.97v1.313h1.968z"/><path fill="#fff869" d="M7.938 8.75H9.25v.656H7.938zm.656-1.312h1.313V8.75H8.594zm1.313-.656h1.312v1.312H9.907zm1.312-.657h1.97v1.313h-1.97zm1.97-.655h2.625v1.312h-2.625zm2.625 0h1.968v1.968h-1.968zm1.968.655h1.312v1.313h-1.312z"/><path fill="#fff869" d="M18.438 6.782h1.969v1.313h-1.97z"/><path fill="#fff869" d="M19.094 6.782h1.968V8.75h-1.968zm-4.593-1.969h1.311v.657h-1.311z"/><path fill="#ffface" d="M7.282 8.094h.655v1.312h-.655zm.655-1.313h.657v1.97h-.657zm.657 0h1.313v.657H8.594zm1.313-.656h1.311v.657H9.907zm1.311-.655h1.97v.655h-1.97zm1.97-.657H14.5v.657h-1.313z"/><path fill="#c61600" d="M7.938 10.063h.656v6.562h-.656z"/><path fill="#f97400" d="M8.594 10.72h.656v5.905h-.656zm.656-1.97h.657v2.626H9.25zm.657 0h.655v1.97h-.655zm.655-.655h.656v1.312h-.656zm.656 0h.657v1.311l-.657.001zm.657 0h1.312v.655h-1.312zm1.312-.657h2.625v.657h-2.625zm3.282.657h1.968v.655H16.47zm1.968.655h.657v.657h-.657zm.657.657h.656v.656h-.656zm.656 1.313h.657v.656h-.657zm-10.5 5.25h.657v1.311H9.25zm.657 1.311h.655v.657h-.655zm.655.657h.656v.657h-.656zm1.313.657h.656v.656h-.656zm-.657 0h.657v.656h-.657z"/><path fill="#c61600" d="M8.594 9.407h.656v1.312h-.656zm11.156 0h.657v1.312h-.657zm.657 1.312h.655v1.313h-.655zM9.25 8.75h.657v.657H9.25zm.657-.655h.655v.655h-.655zm8.53 0h.657v.655h-.657zm.657.655h.656v.657h-.656zM11.22 7.438h1.968v.657h-1.969zm4.593 0h2.625v.657h-2.625zm-2.625-.656h2.625v.656h-2.625zm-3.937 10.5h.657v1.313H9.25zm-.656-1.313h.656v1.969h-.656zm1.313 1.969h.655v.657h-.655zm.655.657h.656v.655h-.656z"/><path fill="#fff869" d="M11.22 19.25h1.967v.656H11.22zm4.592 0h1.97v.656h-1.97zm1.313-.655h1.312v.655h-1.312zm1.312-.657h.657v.657h-.657zm.657-.657h.656v1.314h-.656zm.656-1.312h.657v1.969h-.657zm.657-3.937h.655v4.593h-.655zm-7.22 7.874h2.625v.657h-2.625z"/><path fill="#620719" d="M11.875 17.282h5.25v.656h-5.25z"/><path fill="#f97400" d="M11.875 16.625h5.25v.656h-5.25zm-.656-5.905h6.562v.655h-6.56z"/><path fill="#d93900" d="M11.22 11.376h6.56v.656h-6.56z"/><path fill="#fff869" d="M15.813 12.032h1.312v1.312h-1.312z"/><path fill="#f6d45a" d="M14.5 12.032h1.313v1.312H14.5z"/><path fill="#f97400" d="M11.22 10.063h6.56v.657h-6.56zm0 5.25h.655v1.312h-.656zm5.905 0h.657v1.312h-.657z"/><path fill="#c61600" d="M17.125 13.345h.657v1.968h-.657zm-5.906 0h.656v1.968h-.656zm5.906 1.968v1.312h-5.25v-1.312zm-4.594-1.968V14h-.656v-.655z"/><path fill="#00070a" d="M16.47 12.688v1.313h-.656v-1.313zm-2.626 1.313v.656h-.655v-.656zm1.97 0v.656h-.657v-.656z"/><path fill="#fff" d="M17.125 14v1.313h-1.312V14zm-3.937 0v1.313h-1.313V14zm.656-1.968v1.312h-.656v-1.312zm1.969 2.625v.656h-2.626v-.657z"/><path fill="#f5cb9c" d="M15.156 14v1.313h-1.312v-1.312z"/><path fill="#c61600" d="M15.814 13.345V14h-2.626v-.655zm1.31 0V14h-.655v-.655z"/><path fill="#620719" d="M11.22 16.625h.656v.656h-.657zm5.905 0h.657v.656h-.657zm.657-4.593h.657v4.593h-.657zm-7.22 0h.657v4.593h-.656z"/><path fill="#9e100a" d="M10.563 10.72h.656v1.311h-.656zm1.969-.657v.657h-1.313v-.657zm5.25 0v.657h-.657v-.657zm0 .657h.657v1.311h-.657zm-.657 1.311h.657v1.314h-.657zm-5.906 0h.657v1.314h-.657z"/><path fill="#eeb04b" d="M11.875 12.032h.657v1.312h-.657z"/><path fill="#fff869" d="M13.844 12.032h.657v1.312h-.657zm-1.312 0h.657v1.312h-.657z"/><path fill="#00070a" d="M13.189 12.688v1.313h-.657v-1.313z"/></g><defs><clipPath id="a"><path fill="#fff" d="M.5 0h28v28H.5z"/></clipPath></defs></svg>