<svg width="23" height="22" viewBox="0 0 23 22" fill="none" xmlns="http://www.w3.org/2000/svg">
<path d="M11.8799 19.4719C12.9789 20.4575 14.4037 21.0017 15.8799 20.9999C19.1934 20.9999 21.8799 18.3134 21.8799 14.9999C21.8799 12.3494 20.1614 10.0999 17.7779 9.3064" stroke="white" stroke-width="2" stroke-linecap="round" stroke-linejoin="round"/>
<path d="M13.4654 12.8055C13.7329 13.485 13.8799 14.2255 13.8799 15.0005C13.8799 18.314 11.1934 21.0005 7.87988 21.0005C4.56588 21.0005 1.87988 18.314 1.87988 15.0005C1.87988 12.3425 3.60738 10.0885 6.00088 9.30054" stroke="white" stroke-width="2" stroke-linecap="round" stroke-linejoin="round"/>
<path d="M11.8799 13.0005C15.1934 13.0005 17.8799 10.314 17.8799 7.00049C17.8799 3.68649 15.1934 1.00049 11.8799 1.00049C8.56638 1.00049 5.87988 3.68649 5.87988 7.00049C5.87988 10.314 8.56638 13.0005 11.8799 13.0005Z" stroke="white" stroke-width="2" stroke-linecap="round" stroke-linejoin="round"/>
</svg>
