<svg xmlns="http://www.w3.org/2000/svg" width="24" height="24" fill="none" viewBox="0 0 27 26"><path stroke="#fff" stroke-linecap="round" stroke-linejoin="round" stroke-width="1.62" d="M15.852 22.632c4.531-.301 8.14-3.962 8.438-8.558.058-.9.058-1.831 0-2.73-.297-4.596-3.907-8.257-8.438-8.558a36 36 0 0 0-4.703 0c-4.532.301-8.142 3.962-8.439 8.558-.058.899-.058 1.83 0 2.73.109 1.674.849 3.224 1.72 4.532.506.916.172 2.06-.355 3.059-.38.72-.57 1.08-.417 1.34s.493.268 1.175.285c1.348.033 2.257-.35 2.978-.881.41-.302.614-.453.755-.47.141-.018.418.097.973.325a5.3 5.3 0 0 0 1.61.368c1.543.102 3.157.103 4.703 0Z"/></svg>
