<svg width="33" height="32" viewBox="0 0 33 32" fill="none" xmlns="http://www.w3.org/2000/svg">
<path fill-rule="evenodd" clip-rule="evenodd" d="M24.5328 2.5741C22.5013 2.33329 19.8993 2.3333 16.5865 2.33331H16.4135C13.1008 2.3333 10.4988 2.33329 8.46725 2.5741C6.38549 2.82089 4.73378 3.33694 3.43601 4.48119C2.13826 5.62546 1.55298 7.08181 1.27309 8.91734C0.99997 10.7086 0.999985 13.0028 1 15.9237V16.0762C0.999985 18.9972 0.99997 21.2914 1.27309 23.0826C1.55298 24.9181 2.13826 26.3745 3.43601 27.5188C4.73378 28.663 6.38549 29.179 8.46725 29.4258C10.4988 29.6666 13.1007 29.6666 16.4135 29.6666H16.5865C19.8993 29.6666 22.5013 29.6666 24.5328 29.4258C26.6145 29.179 28.2662 28.663 29.564 27.5188C30.8618 26.3745 31.447 24.9181 31.7269 23.0826C32 21.2914 32 18.9972 32 16.0762V15.9237C32 13.0028 32 10.7086 31.7269 8.91734C31.447 7.08181 30.8618 5.62546 29.564 4.48119C28.2662 3.33694 26.6145 2.82089 24.5328 2.5741ZM18.0122 10.6666C18.0122 9.93027 17.3352 9.33331 16.5 9.33331C15.6648 9.33331 14.9878 9.93027 14.9878 10.6666V14.6666H10.4512C9.61606 14.6666 8.93902 15.2636 8.93902 16C8.93902 16.7364 9.61606 17.3333 10.4512 17.3333H14.9878V21.3333C14.9878 22.0697 15.6648 22.6666 16.5 22.6666C17.3352 22.6666 18.0122 22.0697 18.0122 21.3333V17.3333H22.5488C23.384 17.3333 24.061 16.7364 24.061 16C24.061 15.2636 23.384 14.6666 22.5488 14.6666H18.0122V10.6666Z" fill="url(#paint0_linear_17128_1327)"/>
<defs>
<linearGradient id="paint0_linear_17128_1327" x1="-5.06522" y1="29.7447" x2="49.3335" y2="-0.143868" gradientUnits="userSpaceOnUse">
<stop stop-color="#FF97CD"/>
<stop offset="1" stop-color="#FF349D"/>
</linearGradient>
</defs>
</svg>
