<svg xmlns="http://www.w3.org/2000/svg" width="25" height="25" fill="none" viewBox="0 0 25 25"><path stroke="#fff" stroke-linecap="round" stroke-linejoin="round" stroke-width="1.5" d="M22.5 12.68c0 5.523-4.477 10-10 10s-10-4.477-10-10 4.477-10 10-10 10 4.477 10 10"/><path stroke="#fff" stroke-linecap="round" stroke-linejoin="round" stroke-width="1.5" d="M14.193 8.157 11.46 9.282c-.825.34-1.237.509-1.544.815-.306.307-.476.72-.815 1.543l-1.125 2.733c-.844 2.05-1.266 3.074-.755 3.585.51.511 1.536.09 3.585-.755l2.733-1.125c.824-.34 1.236-.509 1.543-.816s.476-.718.815-1.543l1.125-2.732c.844-2.05 1.266-3.074.755-3.585-.51-.511-1.536-.09-3.585.755"/><path stroke="#fff" stroke-linecap="round" stroke-linejoin="round" stroke-width="2" d="M12.5 12.68v.01"/></svg>