<svg xmlns="http://www.w3.org/2000/svg" width="25" height="24" fill="none" viewBox="0 0 25 24"><path fill="#fff" fill-rule="evenodd" d="M2.13 12c0-5.937 4.813-10.75 10.75-10.75S23.63 6.063 23.63 12s-4.813 10.75-10.75 10.75S2.13 17.938 2.13 12m12.443-4.523-2.732 1.125c-.825.34-1.237.51-1.543.816-.307.307-.477.719-.816 1.543l-1.125 2.732c-.844 2.05-1.266 3.075-.755 3.586s1.536.089 3.585-.755l2.733-1.125c.824-.34 1.236-.51 1.543-.816.306-.307.476-.719.815-1.543l1.126-2.732c.843-2.05 1.265-3.075.754-3.586s-1.536-.089-3.585.755m-.693 4.524a1 1 0 1 0-2 0v.01a1 1 0 1 0 2 0z" clip-rule="evenodd"/></svg>