<svg width="25" height="24" viewBox="0 0 25 24" fill="none" xmlns="http://www.w3.org/2000/svg">
<path fill-rule="evenodd" clip-rule="evenodd" d="M2 12C2 6.06294 6.81294 1.25 12.75 1.25C18.6871 1.25 23.5 6.06294 23.5 12C23.5 17.9371 18.6871 22.75 12.75 22.75C6.81294 22.75 2 17.9371 2 12ZM14.4429 7.47664L11.7105 8.60175C10.8862 8.94114 10.4741 9.11084 10.1675 9.41748C9.86084 9.72411 9.69114 10.1362 9.35175 10.9605L8.22664 13.6929C7.38275 15.7424 6.96079 16.7671 7.47185 17.2782C7.9829 17.7892 9.00764 17.3673 11.0571 16.5234L13.7895 15.3982C14.6138 15.0589 15.0259 14.8892 15.3325 14.5825C15.6392 14.2759 15.8089 13.8638 16.1482 13.0395L17.2734 10.3071C18.1173 8.25764 18.5392 7.2329 18.0282 6.72185C17.5171 6.21079 16.4924 6.63274 14.4429 7.47664ZM13.75 12C13.75 11.4477 13.3023 11 12.75 11C12.1977 11 11.75 11.4477 11.75 12V12.01C11.75 12.5623 12.1977 13.01 12.75 13.01C13.3023 13.01 13.75 12.5623 13.75 12.01V12Z" fill="white"/>
</svg>
