<svg width="25" height="24" viewBox="0 0 25 24" fill="none" xmlns="http://www.w3.org/2000/svg">
<path d="M22.75 12C22.75 17.5228 18.2728 22 12.75 22C7.22715 22 2.75 17.5228 2.75 12C2.75 6.47715 7.22715 2 12.75 2C18.2728 2 22.75 6.47715 22.75 12Z" stroke="white" stroke-width="1.5" stroke-linecap="round" stroke-linejoin="round"/>
<path d="M14.4429 7.47664L11.7105 8.60175C10.8862 8.94115 10.4741 9.11084 10.1675 9.41748C9.86084 9.72411 9.69115 10.1362 9.35175 10.9605L8.22664 13.6929C7.38274 15.7424 6.96079 16.7671 7.47185 17.2782C7.9829 17.7892 9.00764 17.3673 11.0571 16.5234L13.7895 15.3982C14.6138 15.0589 15.0259 14.8892 15.3325 14.5825C15.6392 14.2759 15.8089 13.8638 16.1482 13.0395L17.2734 10.3071C18.1173 8.25764 18.5392 7.2329 18.0282 6.72185C17.5171 6.21079 16.4924 6.63274 14.4429 7.47664Z" stroke="white" stroke-width="1.5" stroke-linecap="round" stroke-linejoin="round"/>
<path d="M12.75 12V12.01" stroke="white" stroke-width="2" stroke-linecap="round" stroke-linejoin="round"/>
</svg>
