<svg xmlns="http://www.w3.org/2000/svg" width="15" height="14" fill="none" viewBox="0 0 15 14"><path fill="#fff" fill-rule="evenodd" d="M3.72 3.916C4.715 3.14 6 2.48 7.5 2.48s2.785.66 3.78 1.436c.996.778 1.732 1.696 2.144 2.273l.03.044c.148.205.317.44.317.768s-.169.562-.316.767l-.031.044c-.412.577-1.148 1.495-2.144 2.273-.995.776-2.28 1.436-3.78 1.436s-2.785-.66-3.78-1.436c-.996-.778-1.732-1.696-2.143-2.273l-.031-.044c-.148-.205-.317-.44-.317-.767 0-.328.169-.563.317-.768l.03-.044c.412-.577 1.148-1.495 2.144-2.273m1.738 3.085a2.042 2.042 0 1 0 4.084 0 2.042 2.042 0 0 0-4.084 0" clip-rule="evenodd"/></svg>