<svg xmlns="http://www.w3.org/2000/svg" width="19" height="18" fill="none" viewBox="0 0 19 18"><g fill="#fff" fill-rule="evenodd" clip-rule="evenodd" opacity=".3"><path d="M2.38 5.25a.75.75 0 0 1 .75-.75h2.25a.75.75 0 0 1 0 1.5H3.13a.75.75 0 0 1-.75-.75m0 7.5a.75.75 0 0 1 .75-.75h4.5a.75.75 0 0 1 0 1.5h-4.5a.75.75 0 0 1-.75-.75m11.25 0a.75.75 0 0 1 .75-.75h2.25a.75.75 0 1 1 0 1.5h-2.25a.75.75 0 0 1-.75-.75m-2.25-7.5a.75.75 0 0 1 .75-.75h4.5a.75.75 0 1 1 0 1.5h-4.5a.75.75 0 0 1-.75-.75"/><path d="M7.611 2.438h.038c.333 0 .612 0 .84.016.238.016.463.05.68.141.506.21.907.61 1.117 1.116.09.218.125.443.141.68.016.229.016.507.016.84v.038c0 .334 0 .612-.016.84a2.1 2.1 0 0 1-.141.68c-.21.506-.611.908-1.117 1.117a2.1 2.1 0 0 1-.68.141c-.228.016-.507.016-.84.016h-.038c-.333 0-.611 0-.84-.016a2.1 2.1 0 0 1-.68-.141A2.06 2.06 0 0 1 4.975 6.79a2.1 2.1 0 0 1-.142-.68 13 13 0 0 1-.015-.84v-.038c0-.334 0-.612.015-.84.016-.238.051-.463.142-.68.209-.506.61-.908 1.116-1.117.218-.09.442-.125.68-.141.229-.016.507-.016.84-.016m4.5 7.5h.038c.333 0 .612 0 .84.016.238.016.463.05.68.141.506.21.907.61 1.117 1.116.09.218.125.443.141.68.016.229.016.507.016.84v.039c0 .333 0 .611-.016.84a2.1 2.1 0 0 1-.141.68c-.21.505-.611.907-1.117 1.116a2.1 2.1 0 0 1-.68.141c-.228.016-.507.016-.84.016h-.038c-.333 0-.612 0-.84-.016a2.1 2.1 0 0 1-.68-.141 2.06 2.06 0 0 1-1.116-1.116 2.1 2.1 0 0 1-.142-.68c-.015-.229-.015-.507-.015-.84v-.038c0-.334 0-.612.015-.84.016-.238.051-.463.142-.68.209-.506.61-.908 1.116-1.117.218-.09.442-.125.68-.141.228-.016.507-.016.84-.016"/></g></svg>