<svg width="9" height="8" viewBox="0 0 9 8" fill="none" xmlns="http://www.w3.org/2000/svg">
<g clip-path="url(#clip0_553_1585)">
<path d="M1.54688 6.33382V2.51683C1.54688 2.03554 1.54687 1.7949 1.62798 1.60598C1.72911 1.37044 1.91682 1.18272 2.15236 1.08159C2.34128 1.00049 2.57956 1.00049 3.06321 1.00049H3.22791C3.42961 1.00049 3.62046 1.0918 3.74701 1.24885L4.35271 2.00049M4.35271 2.00049H6.21354C6.68024 2.00049 6.91361 2.00049 7.09188 2.09131C7.24868 2.17121 7.37614 2.29869 7.45604 2.45549C7.54688 2.63375 7.54688 2.86711 7.54688 3.33382V3.66716M4.35271 2.00049H3.21354" stroke="url(#paint0_linear_553_1585)" stroke-width="0.7" stroke-linecap="round" stroke-linejoin="round"/>
<path d="M1.93288 5.17204L2.03235 4.92447C2.27697 4.31554 2.39928 4.0111 2.65434 3.83917C2.9094 3.66724 3.23873 3.66724 3.8974 3.66724H6.58417C7.48034 3.66724 7.92841 3.66724 8.12761 3.96014C8.32678 4.25307 8.16037 4.6673 7.82754 5.49577L7.72808 5.74334C7.48344 6.35227 7.36114 6.6567 7.10608 6.82864C6.85101 7.00057 6.52167 7.00057 5.86301 7.00057H3.17625C2.28008 7.00057 1.83199 7.00057 1.63281 6.70767C1.43364 6.41474 1.60005 6.0005 1.93288 5.17204Z" stroke="url(#paint1_linear_553_1585)" stroke-width="0.7" stroke-linejoin="round"/>
</g>
<defs>
<linearGradient id="paint0_linear_553_1585" x1="1.54688" y1="3.66716" x2="7.54688" y2="3.66716" gradientUnits="userSpaceOnUse">
<stop stop-color="#F3DDD7"/>
<stop offset="1" stop-color="#F1EFDC"/>
</linearGradient>
<linearGradient id="paint1_linear_553_1585" x1="1.54688" y1="5.3339" x2="8.21354" y2="5.3339" gradientUnits="userSpaceOnUse">
<stop stop-color="#F3DDD7"/>
<stop offset="1" stop-color="#F1EFDC"/>
</linearGradient>
<clipPath id="clip0_553_1585">
<rect width="8" height="8" fill="white" transform="translate(0.880127 0.000488281)"/>
</clipPath>
</defs>
</svg>
