<svg xmlns="http://www.w3.org/2000/svg" width="9" height="8" fill="none" viewBox="0 0 9 8"><g stroke-linejoin="round" stroke-width=".7" clip-path="url(#a)"><path stroke="url(#b)" stroke-linecap="round" d="M1.547 6.334V2.517c0-.481 0-.722.081-.911a1 1 0 0 1 .524-.524C2.342 1 2.58 1 3.063 1h.165c.202 0 .392.092.519.249L4.353 2m0 0h1.86c.467 0 .7 0 .879.091.157.08.284.208.364.364.09.179.09.412.09.879v.333M4.354 2h-1.14"/><path stroke="url(#c)" d="m1.933 5.172.1-.248c.244-.608.366-.913.621-1.085s.585-.172 1.243-.172h2.687c.896 0 1.344 0 1.544.293s.032.707-.3 1.536l-.1.247c-.245.61-.367.914-.622 1.086S6.522 7 5.863 7H3.176c-.896 0-1.344 0-1.543-.293-.2-.293-.033-.708.3-1.536Z"/></g><defs><linearGradient id="b" x1="1.547" x2="7.547" y1="3.667" y2="3.667" gradientUnits="userSpaceOnUse"><stop stop-color="#f3ddd7"/><stop offset="1" stop-color="#f1efdc"/></linearGradient><linearGradient id="c" x1="1.547" x2="8.214" y1="5.334" y2="5.334" gradientUnits="userSpaceOnUse"><stop stop-color="#f3ddd7"/><stop offset="1" stop-color="#f1efdc"/></linearGradient><clipPath id="a"><path fill="#fff" d="M.88 0h8v8h-8z"/></clipPath></defs></svg>