<svg xmlns="http://www.w3.org/2000/svg" width="22" height="21" fill="none" viewBox="0 0 22 21"><g fill="#fff" clip-path="url(#a)"><path fill-rule="evenodd" d="M18.479 6.81c-.363-.362-.89-.584-1.958-.69l.172-1.741c1.221.12 2.236.407 3.023 1.194.706.706 1.01 1.594 1.152 2.65.136 1.018.136 2.312.136 3.918v.128c0 1.606 0 2.9-.136 3.918-.142 1.056-.446 1.944-1.152 2.65-.705.705-1.594 1.009-2.65 1.15-1.017.138-2.311.138-3.917.138h-.128c-1.606 0-2.9 0-3.918-.137-1.056-.142-1.945-.446-2.65-1.151-.787-.788-1.074-1.802-1.194-3.024L7 15.642c.105 1.068.327 1.594.69 1.957.327.326.784.539 1.646.654.888.12 2.063.122 3.749.122s2.86-.002 3.748-.122c.862-.115 1.32-.328 1.646-.654s.538-.784.654-1.646c.12-.887.121-2.063.121-3.748s-.002-2.861-.12-3.748c-.117-.863-.329-1.32-.655-1.646" clip-rule="evenodd"/><path fill-rule="evenodd" d="M9.566.875h.128c1.596 0 2.882 0 3.893.136 1.05.142 1.935.444 2.637 1.146s1.004 1.586 1.145 2.636c.136 1.012.136 2.298.136 3.893v.129c0 1.595 0 2.881-.136 3.893-.141 1.05-.443 1.934-1.145 2.636-.703.702-1.587 1.004-2.637 1.146-1.011.136-2.297.136-3.893.136h-.128c-1.595 0-2.881 0-3.893-.137-1.05-.14-1.934-.443-2.636-1.145s-1.005-1.586-1.146-2.636c-.136-1.012-.136-2.298-.136-3.893v-.129c0-1.595 0-2.881.136-3.893.141-1.05.443-1.934 1.146-2.636S4.623 1.153 5.673 1.01C6.685.875 7.971.875 9.566.875m-3.66 1.87c-.856.116-1.31.326-1.632.65-.323.322-.533.776-.649 1.632-.118.88-.12 2.049-.12 3.723 0 1.675.002 2.843.12 3.724.116.856.326 1.31.649 1.633s.776.533 1.632.648c.882.119 2.05.12 3.724.12s2.843-.001 3.724-.12c.856-.115 1.31-.325 1.632-.648.323-.323.534-.777.649-1.633.118-.88.12-2.049.12-3.724 0-1.674-.002-2.842-.12-3.723-.115-.856-.326-1.31-.649-1.633s-.776-.533-1.632-.648c-.881-.119-2.05-.12-3.724-.12s-2.842.001-3.724.12" clip-rule="evenodd"/><path d="M17.047 9.71c-1.336-1.101-2.625-1.625-3.879-1.65-1.25-.023-2.372.453-3.369 1.171-1.753 1.262-3.273 3.39-4.623 5.283l-.454.634-.574.797.957.225c1.026.24 2.314.24 4.065.238h.509c1.608 0 2.882 0 3.878-.134 1.026-.138 1.857-.429 2.512-1.084.548-.548.844-1.214 1.008-2.026.159-.792.198-1.76.209-2.942l.003-.314z"/></g><defs><clipPath id="a"><path fill="#fff" d="M.88 0h21v21h-21z"/></clipPath></defs></svg>