<svg xmlns="http://www.w3.org/2000/svg" width="25" height="24" fill="none" viewBox="0 0 25 24"><g clip-path="url(#a)"><path fill="#fff" stroke="url(#b)" d="M10.407 2.05c.825-.5 1.6-.8 2.473-.8.874 0 1.648.3 2.474.8.8.483 1.714 1.196 2.861 2.092l1.184.924c1.375 1.073 2.265 1.767 2.749 2.76.483.991.483 2.121.482 3.87v2.332c0 1.845 0 3.305-.153 4.448-.157 1.176-.49 2.128-1.237 2.878-.748.751-1.697 1.085-2.87 1.243-1.14.153-2.596.153-4.433.153h-2.113c-1.838 0-3.294 0-4.433-.153-1.173-.159-2.122-.492-2.87-1.243-.748-.75-1.08-1.702-1.238-2.878-.153-1.143-.153-2.603-.153-4.448v-2.332c0-1.749 0-2.879.483-3.87.483-.993 1.373-1.687 2.749-2.76l1.183-.924c1.148-.896 2.062-1.61 2.861-2.093Z"/></g><defs><linearGradient id="b" x1="4.885" x2="21.443" y1="3.4" y2="19.198" gradientUnits="userSpaceOnUse"><stop stop-color="#fff" stop-opacity=".3"/><stop offset=".37" stop-color="#fff" stop-opacity=".15"/><stop offset=".721" stop-color="#fff" stop-opacity=".1"/><stop offset="1" stop-color="#fff" stop-opacity=".3"/></linearGradient><clipPath id="a"><path fill="#fff" d="M.88 0h24v24h-24z"/></clipPath></defs></svg>