<svg width="25" height="24" viewBox="0 0 25 24" fill="none" xmlns="http://www.w3.org/2000/svg">
<path d="M10.2763 2.04882C11.1021 1.54948 11.8764 1.25 12.7501 1.25C13.6238 1.25 14.398 1.54948 15.2238 2.04882C16.0236 2.53243 16.9376 3.2459 18.0851 4.14158L19.2685 5.06519C20.6444 6.13845 21.5338 6.83222 22.0175 7.82476C22.5011 8.81691 22.5007 9.9466 22.5001 11.6956V14.0277C22.5001 15.8723 22.5001 17.3329 22.347 18.4758C22.1895 19.6516 21.8577 20.6031 21.1098 21.3536C20.3615 22.1046 19.4124 22.438 18.2395 22.5963C17.1001 22.75 15.6443 22.75 13.8067 22.75H11.6935C9.85587 22.75 8.40009 22.75 7.26071 22.5963C6.0878 22.438 5.13864 22.1046 4.39038 21.3536C3.64249 20.6031 3.31069 19.6516 3.15317 18.4758C3.00005 17.3329 3.00006 15.8724 3.00008 14.0278L3.00004 11.6956C2.99947 9.9466 2.9991 8.8169 3.48262 7.82476C3.96633 6.83222 4.85576 6.13845 6.2317 5.06519L7.41505 4.14157C8.56252 3.2459 9.47657 2.53243 10.2763 2.04882Z" fill="white" stroke="url(#paint0_linear_17128_1145)"/>
<defs>
<linearGradient id="paint0_linear_17128_1145" x1="4.75501" y1="3.4" x2="21.313" y2="19.1979" gradientUnits="userSpaceOnUse">
<stop stop-color="white" stop-opacity="0.3"/>
<stop offset="0.370192" stop-color="white" stop-opacity="0.15"/>
<stop offset="0.721154" stop-color="white" stop-opacity="0.1"/>
<stop offset="1" stop-color="white" stop-opacity="0.3"/>
</linearGradient>
</defs>
</svg>
