<svg width="25" height="24" viewBox="0 0 25 24" fill="none" xmlns="http://www.w3.org/2000/svg">
<path d="M7.83848 4.76243L6.83847 5.54298C5.32181 6.72681 4.56348 7.31873 4.15674 8.15333C3.75 8.98792 3.75 9.95205 3.75 11.8803V13.9715C3.75 17.7562 3.75 19.6485 4.92157 20.8243C6.09315 22 7.97876 22 11.75 22H13.75C17.5212 22 19.4069 22 20.5784 20.8243C21.75 19.6485 21.75 17.7562 21.75 13.9715V11.8803C21.75 9.95205 21.75 8.98792 21.3433 8.15333C20.9365 7.31873 20.1782 6.72681 18.6615 5.54298L17.6615 4.76243C15.3021 2.92081 14.1224 2 12.75 2C11.3776 2 10.1979 2.92081 7.83848 4.76243Z" stroke="white" stroke-width="1.5" stroke-linejoin="round"/>
</svg>
