<svg xmlns="http://www.w3.org/2000/svg" width="19" height="18" fill="none" viewBox="0 0 19 18"><path fill="#fff" fill-opacity=".5" fill-rule="evenodd" d="M12.285 6.595a.75.75 0 0 1 0 1.06l-3.75 3.75a.75.75 0 1 1-1.06-1.06l3.75-3.75a.75.75 0 0 1 1.06 0" clip-rule="evenodd"/><path fill="#fff" fill-opacity=".5" fill-rule="evenodd" d="M9.35 2.878a4.704 4.704 0 1 1 6.652 6.653l-1.842 1.842a.75.75 0 1 1-1.06-1.06l1.84-1.843a3.204 3.204 0 1 0-4.53-4.531L8.567 5.78a.75.75 0 0 1-1.06-1.06zm-2.69 3.75a.75.75 0 0 1 0 1.06L4.818 9.532a3.204 3.204 0 1 0 4.532 4.531l1.841-1.842a.75.75 0 0 1 1.061 1.06l-1.842 1.843A4.704 4.704 0 1 1 3.758 8.47L5.6 6.628a.75.75 0 0 1 1.06 0" clip-rule="evenodd"/></svg>