<svg xmlns="http://www.w3.org/2000/svg" width="23" height="22" fill="none" viewBox="0 0 23 22"><path fill="#fff" fill-rule="evenodd" d="M14.44 8.06a.917.917 0 0 1 0 1.297L9.856 13.94a.917.917 0 1 1-1.296-1.296l4.583-4.584a.917.917 0 0 1 1.297 0" clip-rule="evenodd"/><path fill="#fff" fill-rule="evenodd" d="M10.852 3.518a5.75 5.75 0 0 1 8.13 8.13l-2.25 2.252a.917.917 0 0 1-1.297-1.297l2.251-2.25a3.916 3.916 0 1 0-5.538-5.539L9.897 7.065A.917.917 0 0 1 8.6 5.77zM7.565 8.1a.917.917 0 0 1 0 1.296L5.314 11.65a3.916 3.916 0 0 0 5.538 5.538l2.25-2.252a.917.917 0 0 1 1.297 1.297l-2.25 2.251a5.75 5.75 0 1 1-8.132-8.13L6.268 8.1a.917.917 0 0 1 1.297 0" clip-rule="evenodd"/></svg>