<svg xmlns="http://www.w3.org/2000/svg" width="16" height="18" fill="none" viewBox="0 0 16 18"><path fill="url(#a)" d="M11.65 7.434c.715-.501 1.65-.497 2.323.01a1.9 1.9 0 0 1 .692 1.032c.22.824-.114 1.718-.83 2.22l-.158.111c-.202.142-.425.25-.659.322l-.391.12a1.775 1.775 0 0 1-2.01-.693c-.436-.65-.399-1.523.091-2.168l.251-.33q.227-.298.532-.512z"/><path fill="url(#b)" d="M9.487 10.752c-.133-.298-.2-.448-.289-.487-.09-.039-.19.023-.39.148L1.71 15.248c-.856.532-1.138.797-.424 1.942.713 1.144 1.048.918 1.842.294l7.14-4.894c.185-.146.278-.22.275-.319-.004-.1-.116-.217-.34-.451a3.8 3.8 0 0 1-.716-1.068"/><path fill="url(#c)" d="M15.665 7.258c-.044.123-.19.126-.242.007a2.6 2.6 0 0 0-.832-1.044c-.966-.715-2.331-.691-3.39.059l-.234.166a3.7 3.7 0 0 0-.791.76l-.375.486a3 3 0 0 0-.135.189c-.19.29-.285.436-.397.42s-.158-.152-.25-.425a3.6 3.6 0 0 1-.17-.87q-.056-.73.106-1.265.173-.546.417-.988.243-.453.448-.858.204-.416.231-.897.005-.078.047-.092.051-.027.108.014.4.313.678.715.193.26.364.553c.078.133.117.2.174.195.058-.003.086-.069.141-.2q.249-.585.32-1.504.091-1.186-.154-2.535-.015-.068.014-.103l.009-.01.01-.01q.04-.035.107-.01a6 6 0 0 1 2.08 1.351 6.6 6.6 0 0 1 1.34 1.932q.491 1.063.575 2.146c.057.73-.042 1.063-.2 1.818"/><defs><linearGradient id="a" x1="-2.055" x2="27.411" y1="18.052" y2="6.156" gradientUnits="userSpaceOnUse"><stop stop-color="#ff97cd"/><stop offset="1" stop-color="#ff349d"/></linearGradient><linearGradient id="b" x1="-2.055" x2="27.411" y1="18.052" y2="6.156" gradientUnits="userSpaceOnUse"><stop stop-color="#ff97cd"/><stop offset="1" stop-color="#ff349d"/></linearGradient><linearGradient id="c" x1="-2.055" x2="27.411" y1="18.052" y2="6.156" gradientUnits="userSpaceOnUse"><stop stop-color="#ff97cd"/><stop offset="1" stop-color="#ff349d"/></linearGradient></defs></svg>