<svg xmlns="http://www.w3.org/2000/svg" width="25" height="25" fill="none" viewBox="0 0 25 25"><path fill="#fff" d="M10.35 2.43h4.3c4.054 0 6.081 0 7.34 1.264 1.26 1.264 1.26 3.299 1.26 7.368v.539c0 4.069 0 6.103-1.26 7.367-1.259 1.265-3.286 1.265-7.34 1.265-.603.013-1.082.059-1.554.167-1.084.25-2.1.758-3.097 1.257l-.563.28c-1.68.821-2.52 1.232-3.047.847-.503-.376-.525-1.085-.385-1.869.058-.324.087-.486.017-.588s-.233-.131-.557-.191q-1.584-.292-2.455-1.168C1.75 17.705 1.75 15.67 1.75 11.601v-.54c0-4.068 0-6.103 1.26-7.367C4.268 2.43 6.295 2.43 10.35 2.43"/></svg>