<svg xmlns="http://www.w3.org/2000/svg" width="25" height="24" fill="none" viewBox="0 0 25 24"><path fill="#fff" d="M10.73 1.75h4.3c4.054 0 6.081 0 7.34 1.265 1.26 1.264 1.26 3.298 1.26 7.367v.54c0 4.069 0 6.103-1.26 7.367-1.259 1.264-3.286 1.264-7.34 1.264-.602.014-1.082.06-1.554.167-1.084.25-2.1.759-3.097 1.257l-.563.28c-1.68.822-2.52 1.233-3.047.848-.502-.376-.525-1.085-.384-1.87.057-.323.086-.485.016-.587s-.233-.132-.557-.192Q4.26 19.164 3.39 18.29c-1.26-1.264-1.26-3.299-1.26-7.367v-.54c0-4.069 0-6.103 1.26-7.367C4.649 1.75 6.676 1.75 10.73 1.75"/></svg>