<svg xmlns="http://www.w3.org/2000/svg" width="21" height="20" fill="none" viewBox="0 0 21 20"><path fill="#fff" d="M16.089 9.167c.316 0 .578.235.619.54l.006.085v.417a5.625 5.625 0 0 1-5.208 5.61v1.89a.625.625 0 0 1-1.245.085l-.006-.085v-1.89a5.626 5.626 0 0 1-5.205-5.413l-.003-.197v-.417a.625.625 0 0 1 1.244-.085l.006.085v.417a4.375 4.375 0 0 0 4.195 4.371l.18.004h.416a4.375 4.375 0 0 0 4.372-4.195l.003-.18v-.417c0-.345.28-.625.626-.625m-5.209-7.5a3.333 3.333 0 0 1 3.333 3.334v5a3.333 3.333 0 0 1-6.666 0V5a3.333 3.333 0 0 1 3.333-3.334"/></svg>