<svg width="20" height="21" viewBox="0 0 20 21" fill="none" xmlns="http://www.w3.org/2000/svg">
<path d="M15.2083 9.66663C15.5247 9.66663 15.7862 9.90179 15.8276 10.2068L15.8333 10.2916V10.7083C15.8333 13.6745 13.5375 16.1045 10.6258 16.318L10.625 18.2083C10.625 18.5535 10.3451 18.8333 9.99996 18.8333C9.68354 18.8333 9.42204 18.5981 9.38063 18.2931L9.37496 18.2083V16.3181C6.52765 16.1096 4.26898 13.7816 4.17001 10.9052L4.16663 10.7083V10.2916C4.16663 9.94646 4.44645 9.66663 4.79163 9.66663C5.10804 9.66663 5.36953 9.90179 5.41092 10.2068L5.41663 10.2916V10.7083C5.41663 13.0641 7.27867 14.985 9.61129 15.0796L9.79163 15.0833H10.2083C12.5641 15.0833 14.485 13.2213 14.5796 10.8886L14.5833 10.7083V10.2916C14.5833 9.94646 14.8631 9.66663 15.2083 9.66663ZM9.99996 2.16663C11.8409 2.16663 13.3333 3.65901 13.3333 5.49996V10.5C13.3333 12.3409 11.8409 13.8333 9.99996 13.8333C8.15901 13.8333 6.66663 12.3409 6.66663 10.5V5.49996C6.66663 3.65901 8.15901 2.16663 9.99996 2.16663Z" fill="white" fill-opacity="0.66"/>
</svg>
