<svg xmlns="http://www.w3.org/2000/svg" width="19" height="18" fill="none" viewBox="0 0 19 18"><mask id="c" fill="#fff"><path fill-rule="evenodd" d="M9.88 1.063a8.062 8.062 0 1 0 0 16.124 8.062 8.062 0 0 0 0-16.125m.75 5.062a.75.75 0 1 0-1.5 0v2.25H6.88a.75.75 0 1 0 0 1.5h2.25v2.25a.75.75 0 1 0 1.5 0v-2.25h2.25a.75.75 0 1 0 0-1.5h-2.25z" clip-rule="evenodd"/></mask><path fill="url(#a)" fill-rule="evenodd" d="M9.88 1.063a8.062 8.062 0 1 0 0 16.124 8.062 8.062 0 0 0 0-16.125m.75 5.062a.75.75 0 1 0-1.5 0v2.25H6.88a.75.75 0 1 0 0 1.5h2.25v2.25a.75.75 0 1 0 1.5 0v-2.25h2.25a.75.75 0 1 0 0-1.5h-2.25z" clip-rule="evenodd"/><path fill="#fff" fill-opacity=".5" fill-rule="evenodd" d="M9.88 1.063a8.062 8.062 0 1 0 0 16.124 8.062 8.062 0 0 0 0-16.125m.75 5.062a.75.75 0 1 0-1.5 0v2.25H6.88a.75.75 0 1 0 0 1.5h2.25v2.25a.75.75 0 1 0 1.5 0v-2.25h2.25a.75.75 0 1 0 0-1.5h-2.25z" clip-rule="evenodd"/><path stroke="url(#b)" stroke-width="2" d="M9.88 1.063a8.062 8.062 0 1 0 0 16.124 8.062 8.062 0 0 0 0-16.125Zm.75 5.062a.75.75 0 1 0-1.5 0v2.25H6.88a.75.75 0 1 0 0 1.5h2.25v2.25a.75.75 0 1 0 1.5 0v-2.25h2.25a.75.75 0 1 0 0-1.5h-2.25z" clip-rule="evenodd" mask="url(#c)"/><defs><linearGradient id="a" x1="3.269" x2="15.685" y1="2.675" y2="15.736" gradientUnits="userSpaceOnUse"><stop stop-color="#fff" stop-opacity=".3"/><stop offset=".37" stop-color="#fff" stop-opacity=".15"/><stop offset=".721" stop-color="#fff" stop-opacity=".1"/><stop offset="1" stop-color="#fff" stop-opacity=".3"/></linearGradient><linearGradient id="b" x1="3.269" x2="15.685" y1="2.675" y2="15.736" gradientUnits="userSpaceOnUse"><stop stop-color="#fff" stop-opacity=".3"/><stop offset=".37" stop-color="#fff" stop-opacity=".15"/><stop offset=".721" stop-color="#fff" stop-opacity=".1"/><stop offset="1" stop-color="#fff" stop-opacity=".3"/></linearGradient></defs></svg>