<svg width="19" height="18" viewBox="0 0 19 18" fill="none" xmlns="http://www.w3.org/2000/svg">
<mask id="path-1-inside-1_553_1580" fill="white">
<path fill-rule="evenodd" clip-rule="evenodd" d="M9.88013 1.0625C5.42733 1.0625 1.81763 4.6722 1.81763 9.125C1.81763 13.5778 5.42733 17.1875 9.88013 17.1875C14.333 17.1875 17.9426 13.5778 17.9426 9.125C17.9426 4.6722 14.333 1.0625 9.88013 1.0625ZM10.6301 6.125C10.6301 5.71079 10.2944 5.375 9.88013 5.375C9.4659 5.375 9.13013 5.71079 9.13013 6.125V8.375H6.88013C6.46592 8.375 6.13013 8.71077 6.13013 9.125C6.13013 9.53922 6.46592 9.875 6.88013 9.875H9.13013V12.125C9.13013 12.5392 9.4659 12.875 9.88013 12.875C10.2944 12.875 10.6301 12.5392 10.6301 12.125V9.875H12.8801C13.2944 9.875 13.6301 9.53922 13.6301 9.125C13.6301 8.71077 13.2944 8.375 12.8801 8.375H10.6301V6.125Z"/>
</mask>
<path fill-rule="evenodd" clip-rule="evenodd" d="M9.88013 1.0625C5.42733 1.0625 1.81763 4.6722 1.81763 9.125C1.81763 13.5778 5.42733 17.1875 9.88013 17.1875C14.333 17.1875 17.9426 13.5778 17.9426 9.125C17.9426 4.6722 14.333 1.0625 9.88013 1.0625ZM10.6301 6.125C10.6301 5.71079 10.2944 5.375 9.88013 5.375C9.4659 5.375 9.13013 5.71079 9.13013 6.125V8.375H6.88013C6.46592 8.375 6.13013 8.71077 6.13013 9.125C6.13013 9.53922 6.46592 9.875 6.88013 9.875H9.13013V12.125C9.13013 12.5392 9.4659 12.875 9.88013 12.875C10.2944 12.875 10.6301 12.5392 10.6301 12.125V9.875H12.8801C13.2944 9.875 13.6301 9.53922 13.6301 9.125C13.6301 8.71077 13.2944 8.375 12.8801 8.375H10.6301V6.125Z" fill="url(#paint0_linear_553_1580)"/>
<path fill-rule="evenodd" clip-rule="evenodd" d="M9.88013 1.0625C5.42733 1.0625 1.81763 4.6722 1.81763 9.125C1.81763 13.5778 5.42733 17.1875 9.88013 17.1875C14.333 17.1875 17.9426 13.5778 17.9426 9.125C17.9426 4.6722 14.333 1.0625 9.88013 1.0625ZM10.6301 6.125C10.6301 5.71079 10.2944 5.375 9.88013 5.375C9.4659 5.375 9.13013 5.71079 9.13013 6.125V8.375H6.88013C6.46592 8.375 6.13013 8.71077 6.13013 9.125C6.13013 9.53922 6.46592 9.875 6.88013 9.875H9.13013V12.125C9.13013 12.5392 9.4659 12.875 9.88013 12.875C10.2944 12.875 10.6301 12.5392 10.6301 12.125V9.875H12.8801C13.2944 9.875 13.6301 9.53922 13.6301 9.125C13.6301 8.71077 13.2944 8.375 12.8801 8.375H10.6301V6.125Z" fill="white" fill-opacity="0.5"/>
<path fill-rule="evenodd" clip-rule="evenodd" d="M9.88013 1.0625C5.42733 1.0625 1.81763 4.6722 1.81763 9.125C1.81763 13.5778 5.42733 17.1875 9.88013 17.1875C14.333 17.1875 17.9426 13.5778 17.9426 9.125C17.9426 4.6722 14.333 1.0625 9.88013 1.0625ZM10.6301 6.125C10.6301 5.71079 10.2944 5.375 9.88013 5.375C9.4659 5.375 9.13013 5.71079 9.13013 6.125V8.375H6.88013C6.46592 8.375 6.13013 8.71077 6.13013 9.125C6.13013 9.53922 6.46592 9.875 6.88013 9.875H9.13013V12.125C9.13013 12.5392 9.4659 12.875 9.88013 12.875C10.2944 12.875 10.6301 12.5392 10.6301 12.125V9.875H12.8801C13.2944 9.875 13.6301 9.53922 13.6301 9.125C13.6301 8.71077 13.2944 8.375 12.8801 8.375H10.6301V6.125Z" stroke="url(#paint1_linear_553_1580)" stroke-width="2" mask="url(#path-1-inside-1_553_1580)"/>
<defs>
<linearGradient id="paint0_linear_553_1580" x1="3.26888" y1="2.675" x2="15.6851" y2="15.7363" gradientUnits="userSpaceOnUse">
<stop stop-color="white" stop-opacity="0.3"/>
<stop offset="0.370192" stop-color="white" stop-opacity="0.15"/>
<stop offset="0.721154" stop-color="white" stop-opacity="0.1"/>
<stop offset="1" stop-color="white" stop-opacity="0.3"/>
</linearGradient>
<linearGradient id="paint1_linear_553_1580" x1="3.26888" y1="2.675" x2="15.6851" y2="15.7363" gradientUnits="userSpaceOnUse">
<stop stop-color="white" stop-opacity="0.3"/>
<stop offset="0.370192" stop-color="white" stop-opacity="0.15"/>
<stop offset="0.721154" stop-color="white" stop-opacity="0.1"/>
<stop offset="1" stop-color="white" stop-opacity="0.3"/>
</linearGradient>
</defs>
</svg>
