<svg width="21" height="20" viewBox="0 0 21 20" fill="none" xmlns="http://www.w3.org/2000/svg">
<path d="M5.91667 18.3338C7.5275 18.3338 8.83333 17.028 8.83333 15.4172C8.83333 13.8063 7.5275 12.5005 5.91667 12.5005C4.30584 12.5005 3 13.8063 3 15.4172C3 17.028 4.30584 18.3338 5.91667 18.3338Z" stroke="white" stroke-width="1.5"/>
<path d="M15.5 15.834C16.8807 15.834 18 14.7147 18 13.334C18 11.9533 16.8807 10.834 15.5 10.834C14.1193 10.834 13 11.9533 13 13.334C13 14.7147 14.1193 15.834 15.5 15.834Z" stroke="white" stroke-width="1.5"/>
<path d="M8.83325 15.4172V5.83386C8.83325 5.06432 8.83325 4.67956 9.05284 4.44048C9.27234 4.20141 9.68117 4.16653 10.4988 4.09677C13.8516 3.81071 16.2574 2.71724 17.4627 2.00868C17.7089 1.86386 17.8321 1.79146 17.916 1.83946C17.9999 1.88746 17.9999 2.02678 17.9999 2.30542V13.3339" stroke="white" stroke-width="1.5" stroke-linecap="round" stroke-linejoin="round"/>
<path d="M8.83325 8.33398C13.7222 8.33398 16.9814 6.38954 17.9999 5.83398" stroke="white" stroke-width="1.5" stroke-linecap="round" stroke-linejoin="round"/>
</svg>
