<svg xmlns="http://www.w3.org/2000/svg" width="21" height="20" fill="none" viewBox="0 0 21 20"><path stroke="#fff" stroke-width="1.5" d="M5.917 18.334a2.917 2.917 0 1 0 0-5.833 2.917 2.917 0 0 0 0 5.833Zm9.583-2.5a2.5 2.5 0 1 0 0-5 2.5 2.5 0 0 0 0 5Z"/><path stroke="#fff" stroke-linecap="round" stroke-linejoin="round" stroke-width="1.5" d="M8.833 15.417V5.834c0-.77 0-1.154.22-1.394.22-.239.628-.273 1.446-.343 3.353-.286 5.758-1.38 6.964-2.088.246-.145.37-.218.453-.17s.084.188.084.466v11.029"/><path stroke="#fff" stroke-linecap="round" stroke-linejoin="round" stroke-width="1.5" d="M8.833 8.334c4.89 0 8.148-1.944 9.167-2.5"/></svg>