<svg width="25" height="24" viewBox="0 0 25 24" fill="none" xmlns="http://www.w3.org/2000/svg">
<path d="M22.8801 12.0005C22.8801 17.5233 18.4029 22.0005 12.8801 22.0005C7.35728 22.0005 2.88013 17.5233 2.88013 12.0005C2.88013 6.47764 7.35728 2.00049 12.8801 2.00049C18.4029 2.00049 22.8801 6.47764 22.8801 12.0005Z" stroke="white" stroke-width="1.5" stroke-linecap="round" stroke-linejoin="round"/>
<path d="M14.573 7.47713L11.8406 8.60224C11.0163 8.94164 10.6042 9.11133 10.2976 9.41797C9.99096 9.7246 9.82127 10.1367 9.48187 10.961L8.35676 13.6934C7.51286 15.7429 7.09091 16.7676 7.60197 17.2787C8.11302 17.7897 9.13776 17.3678 11.1872 16.5239L13.9196 15.3987C14.7439 15.0594 15.156 14.8897 15.4626 14.583C15.7693 14.2764 15.939 13.8643 16.2783 13.04L17.4035 10.3076C18.2474 8.25813 18.6693 7.23339 18.1583 6.72234C17.6472 6.21128 16.6225 6.63323 14.573 7.47713Z" stroke="white" stroke-width="1.5" stroke-linecap="round" stroke-linejoin="round"/>
<path d="M12.8801 12.0005V12.0105" stroke="white" stroke-width="2" stroke-linecap="round" stroke-linejoin="round"/>
</svg>
