<svg width="25" height="24" viewBox="0 0 25 24" fill="none" xmlns="http://www.w3.org/2000/svg">
<path d="M6.97894 19.0005C5.67883 18.8726 4.70488 18.4821 4.0517 17.8289C2.88013 16.6574 2.88013 14.7717 2.88013 11.0005V10.5005C2.88013 6.72925 2.88013 4.84364 4.0517 3.67206C5.22328 2.50049 7.10889 2.50049 10.8801 2.50049H14.8801C18.6513 2.50049 20.537 2.50049 21.7085 3.67206C22.8801 4.84364 22.8801 6.72925 22.8801 10.5005V11.0005C22.8801 14.7717 22.8801 16.6574 21.7085 17.8289C20.537 19.0005 18.6513 19.0005 14.8801 19.0005C14.3196 19.013 13.8732 19.0556 13.4347 19.1555C12.2363 19.4314 11.1266 20.0446 10.03 20.5794C8.46742 21.3413 7.68613 21.7223 7.19582 21.3656C6.25782 20.667 7.17467 18.5024 7.38013 17.5005" stroke="white" stroke-width="1.5" stroke-linecap="round"/>
</svg>
