<svg width="25" height="24" viewBox="0 0 25 24" fill="none" xmlns="http://www.w3.org/2000/svg">
<path d="M7.96861 4.76292L6.9686 5.54347C5.45194 6.7273 4.69361 7.31922 4.28687 8.15382C3.88013 8.98841 3.88013 9.95254 3.88013 11.8808V13.972C3.88013 17.7567 3.88013 19.649 5.0517 20.8248C6.22328 22.0005 8.10889 22.0005 11.8801 22.0005H13.8801C17.6513 22.0005 19.537 22.0005 20.7085 20.8248C21.8801 19.649 21.8801 17.7567 21.8801 13.972V11.8808C21.8801 9.95254 21.8801 8.98841 21.4734 8.15382C21.0666 7.31922 20.3083 6.7273 18.7916 5.54347L17.7916 4.76292C15.4322 2.9213 14.2525 2.00049 12.8801 2.00049C11.5077 2.00049 10.328 2.9213 7.96861 4.76292Z" stroke="white" stroke-width="1.5" stroke-linejoin="round"/>
</svg>
