<svg width="23" height="21" viewBox="0 0 23 21" fill="none" xmlns="http://www.w3.org/2000/svg">
  <path
    d="M9.35 0.429932H13.65C17.7041 0.429932 19.7311 0.429932 20.9906 1.694C22.25 2.95806 22.25 4.99254 22.25 9.06153V9.60103C22.25 13.6699 22.25 15.7044 20.9906 16.9685C19.7311 18.2325 17.7041 18.2325 13.65 18.2325C13.0475 18.246 12.5676 18.292 12.0962 18.3998C11.0124 18.6502 9.9961 19.1582 8.99881 19.6567C8.81077 19.7507 8.62311 19.8445 8.43611 19.9361C6.75633 20.7581 5.91645 21.1692 5.38937 20.7844C4.88644 20.4084 4.86431 19.6993 5.0044 18.915C5.06226 18.5911 5.0912 18.4291 5.02074 18.3273C4.95029 18.2256 4.78808 18.1957 4.46365 18.1357C3.40736 17.9406 2.59038 17.5515 2.00944 16.9685C0.75 15.7044 0.75 13.6699 0.75 9.60103V9.06153C0.75 4.99254 0.75 2.95806 2.00944 1.694C3.26888 0.429932 5.29592 0.429932 9.35 0.429932Z"
    fill="white" />
</svg>