<svg width="23" height="23" viewBox="0 0 23 23" fill="none" xmlns="http://www.w3.org/2000/svg">
  <path fill-rule="evenodd" clip-rule="evenodd"
    d="M0.75 11.6799C0.75 5.74287 5.56294 0.929932 11.5 0.929932C17.4371 0.929932 22.25 5.74287 22.25 11.6799C22.25 17.617 17.4371 22.4299 11.5 22.4299C5.56294 22.4299 0.75 17.617 0.75 11.6799ZM13.1929 7.15657L10.4605 8.28168C9.6362 8.62107 9.22411 8.79077 8.91748 9.09741C8.61084 9.40404 8.44114 9.81613 8.10175 10.6404L6.97664 13.3728C6.13275 15.4223 5.71079 16.447 6.22185 16.9581C6.7329 17.4691 7.75764 17.0472 9.8071 16.2033L12.5395 15.0781C13.3638 14.7388 13.7759 14.5691 14.0825 14.2624C14.3892 13.9558 14.5589 13.5437 14.8982 12.7194L16.0234 9.98703C16.8673 7.93757 17.2892 6.91283 16.7782 6.40178C16.2671 5.89072 15.2424 6.31267 13.1929 7.15657ZM12.5 11.6799C12.5 11.1276 12.0523 10.6799 11.5 10.6799C10.9477 10.6799 10.5 11.1276 10.5 11.6799V11.6899C10.5 12.2422 10.9477 12.6899 11.5 12.6899C12.0523 12.6899 12.5 12.2422 12.5 11.6899V11.6799Z"
    fill="white" />
</svg>