<svg xmlns="http://www.w3.org/2000/svg" width="33" height="29" fill="none" viewBox="0 0 33 29"><path fill="url(#a)" fill-rule="evenodd" d="M24.792.927C22.695.68 20.009.68 16.589.68h-.178c-3.42 0-6.106 0-8.203.247-2.149.252-3.854.781-5.193 1.953C1.675 4.052 1.07 5.544.782 7.425.5 9.259.5 11.61.5 14.602v.156c0 2.992 0 5.343.282 7.177.289 1.88.893 3.373 2.233 4.545s3.044 1.7 5.193 1.953c2.097.247 4.783.247 8.203.247h.178c3.42 0 6.106 0 8.203-.247 2.149-.253 3.854-.781 5.193-1.953 1.34-1.172 1.944-2.664 2.233-4.545.282-1.834.282-4.185.282-7.177v-.156c0-2.992 0-5.343-.282-7.177-.289-1.88-.893-3.373-2.233-4.545s-3.044-1.7-5.193-1.953" clip-rule="evenodd"/><path stroke="#121212" stroke-linecap="round" stroke-linejoin="round" stroke-width="1.5" d="M16.833 9.68v10.667m5.334-5.334H11.5"/><defs><linearGradient id="a" x1="-5.761" x2="50.193" y1="28.76" y2="-2.219" gradientUnits="userSpaceOnUse"><stop stop-color="#ff97cd"/><stop offset="1" stop-color="#ff349d"/></linearGradient></defs></svg>