<svg xmlns="http://www.w3.org/2000/svg" width="25" height="25" fill="none" viewBox="0 0 25 25"><path fill="#fff" fill-rule="evenodd" d="M1.75 12.68c0-5.937 4.813-10.75 10.75-10.75s10.75 4.813 10.75 10.75-4.813 10.75-10.75 10.75S1.75 18.617 1.75 12.68m12.443-4.523L11.46 9.282c-.825.34-1.237.509-1.544.815-.306.307-.476.72-.815 1.543l-1.125 2.733c-.844 2.05-1.266 3.074-.755 3.585.51.511 1.536.09 3.585-.755l2.733-1.125c.824-.34 1.236-.509 1.543-.816s.476-.718.815-1.543l1.125-2.732c.844-2.05 1.266-3.074.755-3.585-.51-.511-1.536-.09-3.585.755M13.5 12.68a1 1 0 1 0-2 0v.01a1 1 0 1 0 2 0z" clip-rule="evenodd"/></svg>