<svg xmlns="http://www.w3.org/2000/svg" width="25" height="25" fill="none" viewBox="0 0 25 25"><path stroke="#fff" stroke-linecap="round" stroke-width="1.5" d="M6.599 19.68q-1.949-.192-2.927-1.172C2.5 17.337 2.5 15.451 2.5 11.68v-.5c0-3.771 0-5.657 1.172-6.828S6.729 3.18 10.5 3.18h4c3.771 0 5.657 0 6.828 1.171S22.5 7.41 22.5 11.18v.5c0 3.771 0 5.657-1.172 6.828S18.271 19.68 14.5 19.68c-.56.012-1.007.055-1.445.155-1.199.276-2.309.889-3.405 1.424-1.563.762-2.344 1.143-2.834.786-.938-.699-.021-2.863.184-3.865"/></svg>