<svg xmlns="http://www.w3.org/2000/svg" width="25" height="25" fill="none" viewBox="0 0 25 25"><path fill="#fff" stroke="url(#a)" d="M10.026 2.729c.826-.5 1.6-.8 2.474-.8s1.648.3 2.474.8c.8.483 1.714 1.197 2.861 2.093l1.183.923c1.376 1.073 2.266 1.767 2.75 2.76.483.992.483 2.121.482 3.87v2.333c0 1.844 0 3.305-.153 4.448-.158 1.175-.49 2.127-1.237 2.878-.748.75-1.698 1.084-2.87 1.242-1.14.154-2.596.154-4.433.154h-2.113c-1.838 0-3.294 0-4.433-.154-1.173-.158-2.122-.491-2.87-1.242s-1.08-1.703-1.238-2.878c-.153-1.143-.153-2.604-.153-4.448v-2.332c0-1.75 0-2.88.483-3.871.483-.993 1.373-1.687 2.749-2.76l1.183-.923c1.148-.896 2.062-1.61 2.861-2.093Z"/><defs><linearGradient id="a" x1="4.505" x2="21.063" y1="4.08" y2="19.878" gradientUnits="userSpaceOnUse"><stop stop-color="#fff" stop-opacity=".3"/><stop offset=".37" stop-color="#fff" stop-opacity=".15"/><stop offset=".721" stop-color="#fff" stop-opacity=".1"/><stop offset="1" stop-color="#fff" stop-opacity=".3"/></linearGradient></defs></svg>