<svg width="35" height="29" viewBox="0 0 35 29" fill="none" xmlns="http://www.w3.org/2000/svg">
<path d="M1.5 14.6799C1.5 8.55168 1.5 5.48755 3.84314 3.58373C6.1863 1.67993 9.95753 1.67993 17.5 1.67993C25.0424 1.67993 28.8137 1.67993 31.1569 3.58373C33.5 5.48755 33.5 8.55168 33.5 14.6799C33.5 20.8081 33.5 23.8723 31.1569 25.7762C28.8137 27.6799 25.0424 27.6799 17.5 27.6799C9.95753 27.6799 6.1863 27.6799 3.84314 25.7762C1.5 23.8723 1.5 20.8081 1.5 14.6799Z" stroke="url(#paint0_linear_605_5414)" stroke-width="1.5" stroke-linejoin="round"/>
<path d="M17.0355 9.34644V20.0131M22.3688 14.6798H11.7021" stroke="white" stroke-width="1.5" stroke-linecap="round" stroke-linejoin="round"/>
<defs>
<linearGradient id="paint0_linear_605_5414" x1="-4.76087" y1="27.7542" x2="49.1711" y2="-4.4024" gradientUnits="userSpaceOnUse">
<stop stop-color="#FF97CD"/>
<stop offset="1" stop-color="#FF349D"/>
</linearGradient>
</defs>
</svg>
