<svg width="21" height="23" viewBox="0 0 21 23" fill="none" xmlns="http://www.w3.org/2000/svg">
  <path
    d="M8.02635 1.72875C8.8521 1.22941 9.6264 0.929932 10.5001 0.929932C11.3738 0.929932 12.148 1.22941 12.9738 1.72875C13.7736 2.21236 14.6876 2.92583 15.8351 3.82151L17.0185 4.74512C18.3944 5.81838 19.2838 6.51215 19.7675 7.50469C20.2511 8.49684 20.2507 9.62653 20.2501 11.3755V13.7076C20.2501 15.5522 20.2501 17.0128 20.097 18.1557C19.9395 19.3315 19.6077 20.283 18.8598 21.0335C18.1115 21.7845 17.1624 22.1179 15.9895 22.2762C14.8501 22.4299 13.3943 22.4299 11.5567 22.4299H9.4435C7.60587 22.4299 6.15009 22.4299 5.01071 22.2762C3.8378 22.1179 2.88864 21.7845 2.14038 21.0335C1.39249 20.283 1.06069 19.3315 0.903168 18.1557C0.750048 17.0128 0.750058 15.5523 0.750078 13.7077L0.750038 11.3755C0.749468 9.62653 0.749098 8.49683 1.23262 7.50469C1.71633 6.51215 2.60576 5.81838 3.9817 4.74512L5.16505 3.8215C6.31252 2.92583 7.22657 2.21236 8.02635 1.72875Z"
    fill="white" stroke="url(#paint0_linear_19060_305)" />
  <defs>
    <linearGradient id="paint0_linear_19060_305" x1="2.50501" y1="3.07993" x2="19.063" y2="18.8779"
      gradientUnits="userSpaceOnUse">
      <stop stop-color="white" stop-opacity="0.3" />
      <stop offset="0.370192" stop-color="white" stop-opacity="0.15" />
      <stop offset="0.721154" stop-color="white" stop-opacity="0.1" />
      <stop offset="1" stop-color="white" stop-opacity="0.3" />
    </linearGradient>
  </defs>
</svg>