<svg width="23" height="22" viewBox="0 0 23 22" fill="none" xmlns="http://www.w3.org/2000/svg">
<path d="M12.9829 19.5868C12.5854 19.959 12.054 20.1671 11.501 20.1671C10.948 20.1671 10.4167 19.959 10.0191 19.5868C6.3786 16.1576 1.49986 12.3267 3.87908 6.7651C5.16549 3.75797 8.25348 1.83374 11.501 1.83374C14.7486 1.83374 17.8366 3.75797 19.123 6.7651C21.4992 12.3198 16.6324 16.1694 12.9829 19.5868Z" stroke="white" stroke-width="1.5"/>
<path d="M14.7084 10.0838C14.7084 11.8557 13.272 13.2922 11.5001 13.2922C9.72816 13.2922 8.29175 11.8557 8.29175 10.0838C8.29175 8.3119 9.72816 6.87549 11.5001 6.87549C13.272 6.87549 14.7084 8.3119 14.7084 10.0838Z" stroke="white" stroke-width="1.5"/>
</svg>
