<svg xmlns="http://www.w3.org/2000/svg" width="25" height="24" fill="none" viewBox="0 0 25 24"><path fill="#fff" d="M14.57 6.588c1.634.927 2.917 1.656 3.831 2.324.92.672 1.601 1.375 1.845 2.302.179.68.179 1.394 0 2.073-.244.927-.925 1.63-1.845 2.302-.914.668-2.197 1.397-3.83 2.325-1.578.896-2.908 1.651-3.918 2.081-1.018.433-1.946.652-2.848.397a4 4 0 0 1-1.751-1.035c-.66-.665-.924-1.584-1.05-2.691-.124-1.098-.124-2.536-.124-4.365v-.1c0-1.83 0-3.267.124-4.366.126-1.106.39-2.026 1.05-2.691a4 4 0 0 1 1.751-1.035c.902-.255 1.83-.036 2.848.397 1.01.43 2.34 1.185 3.918 2.082"/></svg>