<svg xmlns="http://www.w3.org/2000/svg" width="23" height="22" fill="none" viewBox="0 0 23 22"><path fill="url(#a)" fill-rule="evenodd" d="M3.174 11.917c-.434 0-.651 0-.786.136-.134.135-.132.351-.128.782.011 1.196.048 2.211.162 3.065.173 1.287.54 2.345 1.377 3.181.836.837 1.894 1.204 3.181 1.377.854.114 1.869.15 3.065.162.43.004.647.006.782-.128.136-.135.136-.352.136-.786v-6.872c0-.433 0-.649-.134-.783s-.35-.134-.783-.134zM21.5 9.165c.004.431.006.647-.129.783-.134.136-.351.136-.785.136h-6.873c-.432 0-.648 0-.782-.135-.134-.134-.134-.35-.134-.782V2.294c0-.434 0-.65.135-.785.136-.135.352-.133.783-.129 1.196.012 2.21.048 3.065.163 1.287.173 2.345.54 3.181 1.376s1.203 1.894 1.376 3.181c.115.854.151 1.87.163 3.065" clip-rule="evenodd"/><path fill="url(#b)" fill-rule="evenodd" d="M10.963 2.294c0-.434 0-.65-.136-.785-.135-.135-.351-.133-.782-.129-1.196.012-2.211.048-3.065.163-1.287.173-2.345.54-3.181 1.376-.837.836-1.203 1.894-1.377 3.181-.114.854-.15 1.87-.162 3.065-.004.431-.006.647.128.783.135.136.352.136.786.136h6.873c.432 0 .648 0 .782-.135.134-.134.134-.35.134-.782zm1.834 17.412c0 .434 0 .651.135.786.136.134.352.132.783.128 1.196-.011 2.21-.048 3.065-.162 1.287-.173 2.345-.54 3.181-1.377.836-.836 1.203-1.894 1.376-3.18.115-.855.151-1.87.163-3.065.004-.432.006-.648-.129-.783-.134-.136-.351-.136-.785-.136h-6.873c-.432 0-.648 0-.782.134s-.134.35-.134.783z" clip-rule="evenodd"/><defs><linearGradient id="a" x1="-1.506" x2="34.097" y1="20.676" y2="3.428" gradientUnits="userSpaceOnUse"><stop stop-color="#fff"/><stop offset="1" stop-color="#fff"/></linearGradient><linearGradient id="b" x1="-1.506" x2="34.097" y1="20.676" y2="3.428" gradientUnits="userSpaceOnUse"><stop stop-color="#fff"/><stop offset="1" stop-color="#fff"/></linearGradient></defs></svg>