<svg xmlns="http://www.w3.org/2000/svg" width="23" height="22" fill="none" viewBox="0 0 23 22"><path fill="#fff" fill-rule="evenodd" d="M16.912 2.203c-1.045-.14-2.379-.14-4.063-.14h-1.937c-1.685 0-3.02 0-4.063.14-1.075.145-1.945.45-2.631 1.135-.686.686-.99 1.556-1.135 2.63-.14 1.045-.14 2.38-.14 4.064v1.937c0 1.685 0 3.019.14 4.063.144 1.075.449 1.945 1.135 2.63.686.687 1.556.991 2.63 1.136 1.045.14 2.38.14 4.064.14h1.936c1.685 0 3.02 0 4.064-.14 1.074-.145 1.944-.45 2.63-1.135.686-.686.99-1.556 1.135-2.63.14-1.045.14-2.38.14-4.064v-1.937c0-1.684 0-3.019-.14-4.063-.144-1.075-.449-1.945-1.135-2.63-.686-.687-1.556-.991-2.63-1.136M8.9 8.71a2.98 2.98 0 1 1 4.278 2.682 5.27 5.27 0 0 1 3.972 5.11c0 .38-.308.687-.687.687H7.297a.69.69 0 0 1-.688-.687 5.27 5.27 0 0 1 3.973-5.11A2.98 2.98 0 0 1 8.9 8.709" clip-rule="evenodd"/></svg>