<svg width="27" height="36" viewBox="0 0 27 36" fill="none" xmlns="http://www.w3.org/2000/svg">
<path d="M26.218 22.8109L25.468 22.8109V22.8109L26.218 22.8109ZM26.968 15.9334C26.968 15.5191 26.6322 15.1834 26.218 15.1833C25.8038 15.1833 25.468 15.5191 25.468 15.9333L26.218 15.9333L26.968 15.9334ZM18.1248 30.941V30.191H0.782471V30.941V31.691H18.1248V30.941ZM26.218 22.8109L26.968 22.8109L26.968 15.9334L26.218 15.9333L25.468 15.9333L25.468 22.8109L26.218 22.8109ZM18.1248 30.941V31.691C23.012 31.691 26.968 27.712 26.968 22.8109L26.218 22.8109L25.468 22.8109C25.468 26.8901 22.1771 30.191 18.1248 30.191V30.941Z" fill="white"/>
<path fill-rule="evenodd" clip-rule="evenodd" d="M0.000108778 30.94C0.000108778 31.4986 0.284457 31.9187 0.594878 32.2452C0.883995 32.5493 1.33898 32.9093 1.8018 33.2755L2.87624 34.1257C3.66315 34.7486 4.32193 35.2699 4.87007 35.5894C5.42149 35.9108 6.09946 36.1719 6.80233 35.8593C7.52438 35.5381 7.75976 34.8438 7.85536 34.2191C7.94279 33.6476 7.94873 32.1026 7.94873 32.1026L7.94873 29.7743C7.94841 28.8863 7.9429 28.2352 7.85536 27.6629C7.75976 27.0382 7.52438 26.3439 6.80233 26.0227C6.09946 25.7101 5.42149 25.9713 4.87007 26.2926C4.32193 26.6121 3.66315 27.1335 2.87624 27.7563L1.8018 28.6065C1.33898 28.9728 0.883995 29.3327 0.594878 29.6368C0.284457 29.9632 0.000108778 30.3813 0.000108778 30.94Z" fill="white"/>
<path d="M0.782494 13.1892L1.53249 13.1892L0.782494 13.1892ZM0.0324707 20.0668C0.0324693 20.481 0.368255 20.8168 0.782468 20.8168C1.19668 20.8168 1.53247 20.481 1.53247 20.0668L0.782471 20.0668L0.0324707 20.0668ZM8.87564 5.05908V5.80908H26.218V5.05908V4.30908H8.87564V5.05908ZM0.782494 13.1892L0.0324938 13.1892L0.0324707 20.0668L0.782471 20.0668L1.53247 20.0668L1.53249 13.1892L0.782494 13.1892ZM8.87564 5.05908V4.30908C3.98849 4.30908 0.0325103 8.28809 0.0324938 13.1892L0.782494 13.1892L1.53249 13.1892C1.53251 9.11006 4.82337 5.80908 8.87564 5.80908V5.05908Z" fill="white"/>
<path fill-rule="evenodd" clip-rule="evenodd" d="M26.9999 5.06004C26.9999 4.50141 26.7155 4.0813 26.4051 3.75476C26.116 3.45069 25.661 3.09073 25.1982 2.72452L24.1238 1.87425C23.3368 1.25144 22.6781 0.730119 22.1299 0.41058C21.5785 0.0891892 20.9005 -0.171931 20.1977 0.140708C19.4756 0.461875 19.2402 1.15616 19.1446 1.7809C19.0572 2.35242 19.0513 3.75476 19.0513 3.75476V6.3632C19.0516 7.25113 19.0571 7.76483 19.1446 8.33709C19.2402 8.96184 19.4756 9.6561 20.1977 9.97731C20.9005 10.2899 21.5785 10.0287 22.1299 9.70742C22.6781 9.38791 23.3368 8.86655 24.1238 8.24372L25.1982 7.39347C25.661 7.02723 26.116 6.66727 26.4051 6.3632C26.7155 6.03677 26.9999 5.61867 26.9999 5.06004Z" fill="white"/>
</svg>
