<svg width="19" height="24" viewBox="0 0 19 24" fill="none" xmlns="http://www.w3.org/2000/svg">
<path d="M18.0317 10.3085C18.0317 9.89434 17.696 9.55855 17.2817 9.55855C16.8675 9.55854 16.5317 9.89433 16.5317 10.3085L17.2817 10.3085L18.0317 10.3085ZM12.0216 20.0183V19.2683L0.749979 19.2683V20.0183V20.7683L12.0216 20.7683V20.0183ZM17.2817 14.7582L18.0317 14.7582L18.0317 10.3085L17.2817 10.3085L16.5317 10.3085L16.5317 14.7582L17.2817 14.7582ZM12.0216 20.0183V20.7683C15.3409 20.7683 18.0317 18.0775 18.0317 14.7582L17.2817 14.7582L16.5317 14.7582C16.5317 17.2491 14.5125 19.2683 12.0216 19.2683V20.0183Z" fill="white"/>
<path fill-rule="evenodd" clip-rule="evenodd" d="M0.241772 20.0177C0.241772 20.3792 0.426584 20.651 0.62834 20.8622C0.816252 21.059 1.11197 21.2918 1.41278 21.5288L2.11111 22.0789C2.62256 22.4818 3.05073 22.8191 3.40699 23.0259C3.76539 23.2338 4.20603 23.4027 4.66286 23.2005C5.13215 22.9927 5.28514 22.5435 5.34727 22.1393C5.4041 21.7695 5.40796 20.8622 5.40796 20.8622L5.40796 19.1746C5.40775 18.6001 5.40417 18.2678 5.34727 17.8975C5.28514 17.4933 5.13215 17.0441 4.66286 16.8363C4.20603 16.6341 3.76539 16.803 3.40699 17.0109C3.05073 17.2177 2.62256 17.555 2.11111 17.9579L1.41278 18.508C1.11197 18.745 0.816252 18.9779 0.62834 19.1746C0.426584 19.3858 0.241772 19.6563 0.241772 20.0177Z" fill="white"/>
<path d="M0 12.983C-1.39863e-06 13.3972 0.335784 13.733 0.749997 13.733C1.16421 13.733 1.5 13.3972 1.5 12.983L0.75 12.983L0 12.983ZM6.01013 3.27319V4.02319H17.2818V3.27319V2.52319H6.01013V3.27319ZM0.750015 8.53329L1.50247e-05 8.53329L0 12.983L0.75 12.983L1.5 12.983L1.50002 8.5333L0.750015 8.53329ZM6.01013 3.27319V2.52319C2.69085 2.52319 2.62327e-05 5.214 1.50247e-05 8.53329L0.750015 8.53329L1.50002 8.5333C1.50002 6.04243 3.51927 4.02319 6.01013 4.02319V3.27319Z" fill="white"/>
<path fill-rule="evenodd" clip-rule="evenodd" d="M17.7902 3.27378C17.7902 2.91235 17.6054 2.64054 17.4036 2.42928C17.2157 2.23255 16.92 1.99966 16.6192 1.76272L15.9209 1.21262C15.4094 0.809666 14.9813 0.472377 14.625 0.26564C14.2666 0.0577042 13.826 -0.111237 13.3691 0.0910362C12.8998 0.298827 12.7468 0.748017 12.6847 1.15222C12.6279 1.52198 12.624 2.42928 12.624 2.42928V4.1169C12.6242 4.69138 12.6278 5.02374 12.6847 5.39398C12.7468 5.79818 12.8998 6.24737 13.3691 6.45518C13.826 6.65742 14.2666 6.48846 14.625 6.28057C14.9813 6.07385 15.4094 5.73653 15.9209 5.33357L16.6192 4.78348C16.92 4.54652 17.2157 4.31363 17.4036 4.1169C17.6054 3.90571 17.7902 3.63521 17.7902 3.27378Z" fill="white"/>
</svg>
