<svg width="23" height="22" viewBox="0 0 23 22" fill="none" xmlns="http://www.w3.org/2000/svg">
<path fill-rule="evenodd" clip-rule="evenodd" d="M10.9634 1.83374C6.40703 1.83374 2.71338 5.52739 2.71338 10.0837C2.71338 14.6401 6.40703 18.3337 10.9634 18.3337C12.9113 18.3337 14.7015 17.6586 16.1129 16.5296L19.4819 19.8986C19.8398 20.2565 20.4203 20.2565 20.7782 19.8986C21.1362 19.5406 21.1362 18.9602 20.7782 18.6022L17.4093 15.2333C18.5383 13.8219 19.2134 12.0317 19.2134 10.0837C19.2134 5.52739 15.5198 1.83374 10.9634 1.83374ZM4.54671 10.0837C4.54671 6.53992 7.41955 3.66707 10.9634 3.66707C14.5072 3.66707 17.38 6.53992 17.38 10.0837C17.38 13.6276 14.5072 16.5004 10.9634 16.5004C7.41955 16.5004 4.54671 13.6276 4.54671 10.0837Z" fill="white"/>
</svg>
