<svg xmlns="http://www.w3.org/2000/svg" width="25" height="24" fill="none" viewBox="0 0 25 24"><path fill="#fff" fill-rule="evenodd" d="M9.22 3.75h1.085c.56 0 1.013.436 1.013.973s-.454.972-1.013.972H9.292c-1.46 0-2.454.002-3.199.098-.715.092-1.046.255-1.271.471-.226.217-.395.535-.491 1.221-.1.715-.102 1.669-.102 3.071v3.889c0 1.402.002 2.356.102 3.07.096.687.265 1.005.49 1.221.226.217.557.38 1.272.472.745.096 1.738.098 3.2.098h4.089c1.46 0 2.455-.002 3.199-.098.715-.092 1.046-.255 1.271-.471.294-.283.487-.73.556-1.916.032-.536.51-.946 1.068-.916.559.03.986.489.955 1.025-.074 1.26-.287 2.357-1.146 3.182-.665.637-1.495.902-2.434 1.023-.895.116-2.026.115-3.398.115H9.221c-1.372 0-2.502 0-3.397-.115-.94-.121-1.77-.386-2.434-1.024-.665-.637-.94-1.434-1.067-2.336-.12-.86-.12-1.945-.12-3.261v-4.027c0-1.316 0-2.402.12-3.26.127-.903.402-1.7 1.067-2.337s1.494-.903 2.434-1.024c.895-.116 2.025-.116 3.397-.116" clip-rule="evenodd"/><path fill="#fff" d="M17.415 2.75c-.635 0-1.15.495-1.15 1.104V6.25h-2.864c-3.308 0-5.99 2.575-5.99 5.75v2.5c0 .357.261.664.625.735a.79.79 0 0 0 .874-.436 7 7 0 0 1 .256-.45c.188-.289.48-.678.888-1.065.809-.77 2.071-1.533 3.942-1.533h2.27v2.396c0 .61.514 1.104 1.149 1.104.305 0 .597-.117.813-.324l4.732-4.543c.382-.367.597-.864.597-1.384s-.215-1.016-.597-1.383l-4.732-4.543a1.17 1.17 0 0 0-.813-.324"/></svg>