<svg xmlns="http://www.w3.org/2000/svg" width="39" height="39" fill="none" viewBox="0 0 39 39"><g clip-path="url(#a)"><path fill="url(#b)" d="M20.572 15.363c.85 0 1.504-.754 1.382-1.596l-.502-3.48 2.101 2.808c.51.683 1.5.752 2.1.147.6-.607.528-1.61-.153-2.124l-2.828-2.13 3.477.51a1.407 1.407 0 1 0 .008-2.784l-3.438.484L25.5 5.103a1.417 1.417 0 0 0 .153-2.124 1.387 1.387 0 0 0-2.1.147l-2.1 2.81.501-3.482a1.397 1.397 0 1 0-2.766-.008l.483 3.501-2.073-2.808a1.387 1.387 0 0 0-2.105-.153 1.417 1.417 0 0 0 .146 2.12l2.734 2.084-3.378-.476a1.407 1.407 0 1 0 .008 2.784l3.417-.501-2.78 2.119a1.417 1.417 0 0 0-.147 2.12 1.387 1.387 0 0 0 2.105-.154l2.073-2.807-.483 3.5a1.397 1.397 0 0 0 1.384 1.588"/><path stroke="#fff" stroke-linecap="round" stroke-linejoin="round" stroke-width="1.5" d="m7.625 34.787-3.393-4.275a7.72 7.72 0 0 1-1.696-4.767v-8.77a2.545 2.545 0 0 1 5.089 0v6.683"/><path stroke="#fff" stroke-linecap="round" stroke-linejoin="round" stroke-width="1.5" d="M15.259 34.787v-5.326a7.5 7.5 0 0 0-1.29-4.224l-1.933-2.918a2.39 2.39 0 0 0-3.393-.747 2.36 2.36 0 0 0-.798 3.037l2.324 3.817m21.63 6.361 3.393-4.275a7.63 7.63 0 0 0 1.696-4.767v-8.77a2.545 2.545 0 0 0-5.09 0v6.582"/><path stroke="#fff" stroke-linecap="round" stroke-linejoin="round" stroke-width="1.5" d="M24.165 34.787V29.46a7.5 7.5 0 0 1 1.29-4.224l1.933-2.918a2.38 2.38 0 0 1 3.393-.746 2.36 2.36 0 0 1 .814 3.037l-2.34 3.817"/></g><defs><linearGradient id="b" x1="18.551" x2="27.875" y1=".858" y2="9.964" gradientUnits="userSpaceOnUse"><stop stop-color="#ff97cd"/><stop offset="1" stop-color="#ff349d"/></linearGradient><clipPath id="a"><path fill="#fff" d="M.5.18h38v38H.5z"/></clipPath></defs></svg>