<svg xmlns="http://www.w3.org/2000/svg" width="23" height="22" fill="none" viewBox="0 0 23 22"><path stroke="#fff" stroke-linecap="round" stroke-linejoin="round" stroke-width="1.5" d="M16.542 4.584a1.375 1.375 0 1 1 0 2.75 1.375 1.375 0 0 1 0-2.75"/><path stroke="#fff" stroke-width="1.5" d="M3.043 10.216c-.92 1.027-.94 2.576-.095 3.666a31.2 31.2 0 0 0 5.67 5.67c1.09.845 2.64.825 3.667-.095a85 85 0 0 0 7.806-7.973c.243-.283.396-.63.43-1.003.151-1.646.462-6.388-.826-7.676s-6.03-.977-7.676-.826a1.8 1.8 0 0 0-1.003.43 85 85 0 0 0-7.973 7.807Z"/><path stroke="#fff" stroke-linecap="round" stroke-linejoin="round" stroke-width="1.5" d="m6.917 12.834 2.75 2.75"/></svg>