<svg xmlns="http://www.w3.org/2000/svg" width="25" height="24" fill="none" viewBox="0 0 25 24"><path fill="#fff" fill-rule="evenodd" d="m6.043 13-2.22 6.331a1 1 0 1 1-1.887-.662l2.92-8.325c.65-1.854 1.169-3.336 1.668-4.349.253-.514.539-.986.889-1.34.37-.374.86-.655 1.467-.655s1.096.281 1.467.655c.35.354.636.826.89 1.34.498 1.013 1.018 2.495 1.668 4.349l2.919 8.325a1 1 0 0 1-1.887.662l-2.22-6.33zm.702-2c.666-1.902 1.14-3.243 1.573-4.12.22-.445.39-.69.515-.816l.047-.044q.019.015.047.044c.125.125.296.371.515.815.433.878.907 2.22 1.574 4.121zM8.92 5.992l-.008.003zm-.074.003-.007-.003zM19.804 9h.152c.39 0 .697 0 .971.043a3.5 3.5 0 0 1 2.91 2.91c.043.274.043.582.043.972V18.5a1 1 0 0 1-1.782.623A4.4 4.4 0 0 1 19.45 20c-1.895 0-3.571-1.485-3.571-3.5a3.5 3.5 0 0 1 3.5-3.5h2.5c0-.502-.003-.637-.019-.734a1.5 1.5 0 0 0-1.246-1.247c-.097-.016-.232-.019-.735-.019s-.638.003-.735.019a1.5 1.5 0 0 0-1.14.881 1 1 0 0 1-1.833-.8 3.5 3.5 0 0 1 2.66-2.057C19.107 9 19.414 9 19.804 9m2.076 6h-2.5a1.5 1.5 0 0 0-1.5 1.5c0 .823.69 1.5 1.571 1.5a2.43 2.43 0 0 0 2.429-2.427z" clip-rule="evenodd"/></svg>