<svg xmlns="http://www.w3.org/2000/svg" width="18" height="18" fill="none" viewBox="0 0 18 18"><g clip-path="url(#a)"><path fill="url(#b)" d="M11.73 7.59a.51.51 0 0 0-.082-.73.536.536 0 0 0-.744.082L8.42 9.987l-1.327-1.02a.536.536 0 0 0-.845.244.51.51 0 0 0 .167.554l1.74 1.357a.536.536 0 0 0 .752-.075l2.82-3.465z"/><path fill="url(#c)" fill-rule="evenodd" d="M7.763 3.536c.4-.294.6-.44.817-.498a1.2 1.2 0 0 1 .59 0c.22.057.42.204.818.498l.508.373c.139.102.208.153.284.193a1.3 1.3 0 0 0 .209.087c.081.025.166.037.336.064l.623.095c.491.075.736.113.93.228.172.101.316.245.418.418.115.195.152.44.228.93l.095.622c.026.17.039.256.064.338q.033.108.087.208c.04.075.09.145.193.284l.372.507c.294.4.441.601.498.818.05.194.05.396 0 .59-.056.22-.204.42-.498.818l-.373.507a2 2 0 0 0-.192.284 1.2 1.2 0 0 0-.087.21c-.025.08-.038.166-.064.336l-.095.622c-.075.492-.113.737-.228.93a1.2 1.2 0 0 1-.418.418c-.195.115-.441.152-.93.228l-.623.095a2 2 0 0 0-.336.065 1 1 0 0 0-.21.087c-.075.04-.144.09-.283.193l-.508.372c-.4.294-.6.441-.817.498a1.2 1.2 0 0 1-.59 0c-.22-.057-.42-.204-.818-.498l-.508-.372a2 2 0 0 0-.283-.193 1.2 1.2 0 0 0-.21-.087 2 2 0 0 0-.336-.065l-.623-.095c-.491-.075-.737-.112-.93-.228a1.2 1.2 0 0 1-.418-.418c-.114-.195-.152-.44-.228-.93l-.095-.622c-.026-.17-.039-.255-.064-.337a1 1 0 0 0-.087-.21 2 2 0 0 0-.192-.283l-.373-.507c-.294-.4-.441-.6-.498-.818a1.2 1.2 0 0 1 0-.59c.056-.22.204-.42.498-.818l.373-.507c.102-.14.153-.209.192-.284q.053-.099.087-.21c.025-.08.038-.166.064-.336l.095-.622c.075-.492.114-.738.228-.93.102-.173.246-.315.418-.418.195-.115.441-.152.93-.228l.623-.095a2.4 2.4 0 0 0 .336-.064q.11-.034.21-.087c.075-.04.144-.09.283-.193zm1.785.605.533.391c.114.084.225.166.35.232q.165.088.342.142a3 3 0 0 0 .41.083l.655.1c.556.086.625.11.665.133a.43.43 0 0 1 .152.152c.024.04.048.11.132.665l.1.654q.029.208.084.411.055.18.142.342c.066.125.148.236.232.35l.391.533c.333.453.364.518.377.565a.45.45 0 0 1 0 .214c-.012.046-.044.111-.377.565l-.392.533a3 3 0 0 0-.231.35q-.087.164-.142.342a3 3 0 0 0-.083.41l-.1.655c-.086.555-.11.624-.133.665a.45.45 0 0 1-.152.151c-.04.024-.11.048-.665.133l-.654.1a3 3 0 0 0-.411.084 2 2 0 0 0-.342.142c-.125.066-.236.148-.35.231l-.533.392c-.453.333-.518.364-.565.376a.45.45 0 0 1-.214 0c-.046-.012-.111-.043-.565-.376l-.533-.392a3 3 0 0 0-.35-.231 2 2 0 0 0-.342-.142 3 3 0 0 0-.41-.083l-.655-.1c-.556-.086-.625-.11-.665-.134a.45.45 0 0 1-.152-.151c-.024-.04-.048-.11-.132-.665l-.1-.654a3 3 0 0 0-.084-.411 2 2 0 0 0-.142-.342 3 3 0 0 0-.232-.35l-.391-.533c-.333-.453-.365-.518-.377-.565a.45.45 0 0 1 0-.214c.012-.046.044-.111.377-.565l.391-.533c.084-.114.166-.225.232-.35q.087-.165.142-.342a3 3 0 0 0 .083-.41l.1-.655c.086-.556.11-.625.133-.665a.45.45 0 0 1 .152-.152c.04-.024.11-.048.665-.132l.654-.1a3 3 0 0 0 .411-.084q.18-.055.342-.142c.125-.066.236-.148.35-.232l.533-.391c.453-.333.518-.365.565-.377a.45.45 0 0 1 .214 0c.046.012.111.044.565.377" clip-rule="evenodd"/></g><defs><linearGradient id="b" x1="5.126" x2="14.52" y1="11.255" y2="5.565" gradientUnits="userSpaceOnUse"><stop stop-color="#ff97cd"/><stop offset="1" stop-color="#ff349d"/></linearGradient><linearGradient id="c" x1=".535" x2="22.719" y1="15.025" y2="4.279" gradientUnits="userSpaceOnUse"><stop stop-color="#ff97cd"/><stop offset="1" stop-color="#ff349d"/></linearGradient><clipPath id="a"><path fill="#fff" d="M2.88 3h12v12h-12z"/></clipPath></defs></svg>