<svg xmlns="http://www.w3.org/2000/svg" width="25" height="24" fill="none" viewBox="0 0 25 24"><path fill="#fff" d="M11.872 3.976c.686-.527 1.504-.956 2.375-.587.863.365 1.14 1.244 1.26 2.11.123.886.123 2.107.123 3.625v5.756c0 1.518 0 2.739-.123 3.626-.12.865-.397 1.744-1.26 2.11-.871.368-1.689-.06-2.376-.588-.702-.54-1.594-1.451-2.644-2.523-.54-.551-.898-.817-1.26-.967-.365-.15-.808-.215-1.58-.215-.67 0-1.267 0-1.72-.047-.475-.049-.916-.156-1.313-.427-.756-.516-1.045-1.27-1.155-1.965-.081-.517-.072-1.085-.064-1.543v-.678c-.008-.457-.017-1.026.064-1.543.11-.694.4-1.45 1.155-1.965.397-.27.838-.378 1.313-.427.453-.047 1.05-.047 1.72-.047.772 0 1.215-.064 1.58-.215.362-.15.72-.416 1.26-.967 1.05-1.072 1.942-1.983 2.644-2.523"/><path fill="#fff" fill-rule="evenodd" d="M17.273 8.206a1 1 0 0 1 1.402.188 5.93 5.93 0 0 1 1.205 3.607 5.93 5.93 0 0 1-1.205 3.606 1 1 0 1 1-1.59-1.213 3.93 3.93 0 0 0 .795-2.393c0-.915-.301-1.746-.795-2.394a1 1 0 0 1 .188-1.401" clip-rule="evenodd"/><path fill="#fff" fill-rule="evenodd" d="M20.205 6.263a1 1 0 0 1 1.413.062c1.403 1.533 2.262 3.508 2.262 5.676 0 2.167-.86 4.142-2.262 5.675a1 1 0 0 1-1.476-1.35c1.099-1.2 1.738-2.705 1.738-4.325s-.64-3.126-1.738-4.325a1 1 0 0 1 .063-1.413" clip-rule="evenodd"/></svg>